<?xml version="1.0" encoding="UTF-8"?>
<svg id="_레이어_2" data-name="레이어 2" xmlns="http://www.w3.org/2000/svg" viewBox="0 0 85.36 31.69">
  <defs>
    <style>
      .cls-1 {
        fill: #d9ac37;
      }

      .cls-1, .cls-2, .cls-3, .cls-4, .cls-5 {
        stroke-width: 0px;
      }

      .cls-2 {
        fill: #3eb65f;
      }

      .cls-3 {
        fill: #006c36;
      }

      .cls-4 {
        fill: #fff;
      }

      .cls-5 {
        fill: #2a3b29;
      }
    </style>
  </defs>
  <g id="IMA">
    <g>
      <g>
        <path class="cls-4" d="M40.14,8.92c0,.17.04.28.12.34.03.03.04.05.03.09,0,.03-.04.05-.08.05h-1.4s-.06-.02-.07-.05c0-.03,0-.06.03-.09.08-.06.12-.17.12-.33V3.94c0-.17-.04-.29-.12-.35-.03-.02-.04-.05-.04-.08,0-.03.03-.05.08-.05h1.4s.07.02.08.05c0,.03,0,.06-.03.08-.08.06-.12.17-.12.33v5Z"/>
        <path class="cls-4" d="M44.96,9.21s.04.05.03.08c0,.03-.04.05-.08.05h-1.39s-.07-.02-.08-.05c0-.03,0-.06.03-.08.08-.06.12-.18.12-.34v-2.71c0-.46-.18-.7-.54-.7-.24,0-.48.12-.72.37v3.04c0,.17.04.28.12.34.03.03.04.05.03.08,0,.03-.04.05-.08.05h-1.4s-.07-.02-.08-.05c0-.03,0-.06.04-.08.08-.06.12-.18.12-.34v-3.35c0-.16-.04-.28-.12-.34-.03-.02-.04-.05-.04-.09,0-.03.03-.05.08-.05h1.02c.09,0,.16.03.22.09.06.06.09.13.09.22v.25c.38-.43.86-.65,1.42-.65.31,0,.57.1.77.31.2.21.3.44.3.7v2.91c0,.16.04.28.12.34Z"/>
        <path class="cls-4" d="M47.62,5.23h-.55v2.95c0,.19.03.37.09.54.06.17.15.25.27.25.04,0,.08,0,.12-.03.02-.01.05-.01.08,0,.03.02.04.04.04.07s-.02.06-.05.09c-.29.22-.56.33-.81.33-.67,0-1-.37-1-1.1v-3.1h-.43c-.08,0-.12-.03-.12-.09s.04-.09.11-.09c.46,0,.82-.12,1.08-.37.25-.24.38-.52.38-.84,0-.11.04-.17.12-.17.08,0,.11.05.11.14v1.23h.54c.08,0,.12.03.12.1,0,.06-.04.08-.11.08Z"/>
        <path class="cls-4" d="M51.73,8.51s.07-.03.1,0c.02.03.03.05,0,.08-.12.23-.35.42-.68.58-.33.16-.72.24-1.16.24-.62,0-1.12-.2-1.51-.59-.38-.4-.59-.92-.61-1.58-.02-.65.17-1.19.56-1.63.41-.45.93-.67,1.58-.67.54,0,.97.13,1.3.4.33.27.49.59.49.96,0,.29-.08.54-.25.74-.17.2-.36.34-.58.42-.22.08-.44.16-.65.23-.21.07-.37.14-.48.23-.11.09-.12.2-.04.35.04.04.09.1.16.16.07.07.2.16.41.27.21.11.42.17.63.17.3,0,.54-.13.72-.39ZM49.88,5.17c-.36,0-.6.2-.72.59-.12.39-.14.81-.05,1.26.09.45.24.77.45.96.04-.14.12-.29.24-.42.12-.14.24-.25.37-.35.12-.09.24-.23.34-.41.11-.18.17-.39.18-.62.02-.29-.04-.53-.19-.72-.14-.18-.35-.28-.62-.28Z"/>
        <path class="cls-4" d="M55.52,5.24c.09.14.12.27.07.41-.05.14-.1.24-.16.31-.06.07-.12.13-.18.16-.05.03-.1.04-.16.04-.06,0-.11-.02-.13-.06-.21-.37-.45-.56-.72-.56-.14,0-.28.07-.41.2v3.12c0,.17.04.28.12.34.03.03.04.05.03.08,0,.03-.04.05-.08.05h-1.4s-.06-.02-.07-.05c0-.03,0-.06.03-.08.08-.06.12-.18.12-.34v-3.35c0-.16-.04-.28-.12-.34-.03-.02-.04-.05-.04-.09,0-.03.03-.05.08-.05h1.02c.09,0,.16.03.22.09.06.06.09.13.09.22v.15c.23-.38.56-.56,1-.56.36,0,.59.1.71.3Z"/>
        <path class="cls-4" d="M60.01,9.21s.04.05.03.08c0,.03-.04.05-.08.05h-1.39s-.07-.02-.08-.05c0-.03,0-.06.03-.08.08-.06.12-.18.12-.34v-2.71c0-.46-.18-.7-.54-.7-.24,0-.48.12-.72.37v3.04c0,.17.04.28.12.34.03.03.04.05.03.08,0,.03-.04.05-.08.05h-1.4s-.07-.02-.08-.05c0-.03,0-.06.04-.08.08-.06.12-.18.12-.34v-3.35c0-.16-.04-.28-.12-.34-.03-.02-.04-.05-.04-.09,0-.03.03-.05.08-.05h1.02c.09,0,.16.03.22.09.06.06.09.13.09.22v.25c.38-.43.86-.65,1.42-.65.31,0,.57.1.77.31.2.21.3.44.3.7v2.91c0,.16.04.28.12.34Z"/>
        <path class="cls-4" d="M64.64,9.13s.06.02.07.05c0,.03,0,.06-.05.08-.08.06-.29.08-.66.08-.19,0-.35-.03-.48-.1-.13-.07-.22-.13-.27-.2l-.06-.1-.07.06c-.26.29-.63.43-1.09.43-.4,0-.75-.1-1.04-.31-.29-.2-.44-.5-.44-.9,0-.11.03-.24.09-.38.06-.14.17-.3.33-.49.16-.18.42-.35.79-.5.36-.15.8-.25,1.32-.31v-.72c0-.23-.06-.4-.17-.53-.12-.13-.27-.19-.45-.19-.31,0-.56.18-.73.54-.17.36-.2.61-.09.77.02.03.02.06,0,.1-.02.03-.05.06-.07.06-.16.03-.33,0-.5-.1-.17-.09-.25-.24-.25-.43,0-.32.19-.58.56-.79.37-.2.8-.31,1.28-.31s.88.11,1.21.33c.33.22.49.55.49.99v2.28c0,.09,0,.15,0,.18,0,.03.01.09.02.17.01.08.04.14.08.17.04.03.1.05.17.05ZM62.56,9.09c.11,0,.22-.02.31-.07.09-.05.16-.09.2-.14l.06-.07c-.03-.09-.05-.19-.05-.32v-1.8c-.14.03-.26.05-.36.07-.09.02-.22.07-.39.14-.16.07-.29.15-.38.25-.09.1-.17.23-.23.41-.06.18-.08.38-.06.61.03.26.13.47.29.65.16.18.36.26.6.26Z"/>
        <path class="cls-4" d="M67.12,5.23h-.55v2.95c0,.19.03.37.09.54.06.17.15.25.27.25.04,0,.08,0,.12-.03.02-.01.05-.01.08,0,.03.02.04.04.04.07s-.02.06-.05.09c-.29.22-.56.33-.81.33-.67,0-1-.37-1-1.1v-3.1h-.43c-.08,0-.12-.03-.12-.09s.04-.09.11-.09c.46,0,.82-.12,1.08-.37.25-.24.38-.52.38-.84,0-.11.04-.17.12-.17.08,0,.11.05.11.14v1.23h.54c.08,0,.12.03.12.1,0,.06-.04.08-.11.08Z"/>
        <path class="cls-4" d="M69.2,9.21s.04.05.04.08c0,.03-.03.05-.08.05h-1.4s-.07-.02-.08-.05c0-.03,0-.06.03-.08.08-.06.12-.17.12-.33v-3.02c0-.06-.02-.09-.06-.08-.06,0-.09-.02-.1-.08-.01-.06,0-.1.07-.13.55-.26.93-.43,1.15-.51.13-.04.19-.01.19.09v3.72c0,.16.04.28.12.34ZM68.89,4.5c-.12.12-.27.18-.44.18s-.31-.06-.43-.18c-.12-.12-.18-.27-.18-.44s.06-.31.18-.43c.12-.12.26-.18.43-.18s.32.06.44.18c.12.12.18.26.18.43s-.06.32-.18.44Z"/>
        <path class="cls-4" d="M73.85,6.33c.26.58.29,1.15.1,1.73-.19.57-.55.98-1.09,1.22-.26.12-.53.18-.82.18-.43,0-.83-.12-1.2-.37-.37-.25-.65-.58-.84-1.01-.26-.57-.29-1.14-.1-1.72.19-.57.55-.98,1.09-1.23.26-.12.53-.18.81-.18.42,0,.82.13,1.2.38.38.25.66.59.86,1.01ZM72.05,8.8c.31.32.56.43.75.34.19-.09.27-.35.24-.79-.04-.44-.18-.93-.41-1.47-.24-.54-.52-.97-.83-1.28-.31-.32-.56-.43-.75-.34-.19.09-.27.35-.24.8.03.44.17.93.42,1.46.24.54.52.97.83,1.28Z"/>
        <path class="cls-4" d="M78.62,9.21s.04.05.03.08c0,.03-.04.05-.08.05h-1.39s-.07-.02-.08-.05c0-.03,0-.06.03-.08.08-.06.12-.18.12-.34v-2.71c0-.46-.18-.7-.54-.7-.24,0-.48.12-.72.37v3.04c0,.17.04.28.12.34.03.03.04.05.03.08,0,.03-.04.05-.08.05h-1.4s-.07-.02-.08-.05c0-.03,0-.06.04-.08.08-.06.12-.18.12-.34v-3.35c0-.16-.04-.28-.12-.34-.03-.02-.04-.05-.04-.09,0-.03.03-.05.08-.05h1.02c.09,0,.16.03.22.09.06.06.09.13.09.22v.25c.38-.43.86-.65,1.42-.65.31,0,.57.1.77.31.2.21.3.44.3.7v2.91c0,.16.04.28.12.34Z"/>
        <path class="cls-4" d="M83.25,9.13s.06.02.07.05c0,.03,0,.06-.05.08-.08.06-.29.08-.66.08-.19,0-.35-.03-.48-.1-.13-.07-.22-.13-.27-.2l-.06-.1-.07.06c-.26.29-.63.43-1.09.43-.4,0-.75-.1-1.04-.31-.29-.2-.44-.5-.44-.9,0-.11.03-.24.09-.38.06-.14.17-.3.33-.49.16-.18.42-.35.79-.5.36-.15.8-.25,1.32-.31v-.72c0-.23-.06-.4-.17-.53-.12-.13-.27-.19-.45-.19-.31,0-.56.18-.73.54-.17.36-.2.61-.09.77.02.03.02.06,0,.1-.02.03-.05.06-.07.06-.16.03-.33,0-.5-.1-.17-.09-.25-.24-.25-.43,0-.32.19-.58.56-.79.37-.2.8-.31,1.28-.31s.88.11,1.21.33c.33.22.49.55.49.99v2.28c0,.09,0,.15,0,.18,0,.03.01.09.02.17.01.08.04.14.08.17.04.03.1.05.17.05ZM81.17,9.09c.11,0,.22-.02.31-.07.09-.05.16-.09.2-.14l.06-.07c-.03-.09-.05-.19-.05-.32v-1.8c-.14.03-.26.05-.36.07-.09.02-.22.07-.39.14-.16.07-.29.15-.38.25-.09.1-.17.23-.23.41-.06.18-.08.38-.06.61.03.26.13.47.29.65.16.18.36.26.6.26Z"/>
        <path class="cls-4" d="M85.32,9.21s.04.05.04.08c0,.03-.03.05-.08.05h-1.4s-.07-.02-.08-.05c0-.03,0-.06.03-.08.08-.06.12-.17.12-.33v-4.65c0-.07-.02-.1-.06-.09-.06,0-.09-.02-.1-.08-.01-.06,0-.1.07-.13.46-.21.85-.38,1.15-.5.06-.02.11-.03.14,0,.03.02.05.05.05.09v5.35c0,.16.04.28.12.34Z"/>
        <path class="cls-4" d="M44.86,18.33c0,.16.04.28.13.34.03.03.04.05.03.09,0,.03-.04.05-.08.05h-1.4s-.07-.02-.08-.05c0-.03,0-.06.04-.09.08-.05.12-.16.12-.33v-4.8l-1.92,5.14c-.02.06-.06.08-.11.08-.06,0-.1-.03-.12-.08l-2.37-5.13v4.77c0,.17.04.28.12.34.03.03.04.05.03.09,0,.03-.04.05-.08.05h-.37s-.06-.02-.07-.05c0-.03,0-.06.03-.09.08-.06.12-.17.12-.33v-4.99c0-.17-.04-.29-.12-.35-.03-.02-.04-.05-.04-.08,0-.03.03-.05.08-.05h1.21c.13,0,.21.05.24.14l1.82,3.99,1.52-4.01c.03-.08.09-.12.19-.12h1.16s.07.02.08.05c0,.03,0,.06-.03.08-.08.06-.12.17-.12.33v5Z"/>
        <path class="cls-4" d="M49.46,17.92s.07-.03.1,0c.02.03.03.05,0,.08-.12.23-.35.42-.68.58-.33.16-.72.24-1.16.24-.62,0-1.12-.2-1.51-.59-.38-.4-.59-.92-.61-1.58-.02-.65.17-1.19.56-1.63.41-.45.93-.67,1.58-.67.54,0,.97.13,1.3.4.33.27.49.59.49.96,0,.29-.08.54-.25.74-.17.2-.36.34-.58.42-.22.08-.44.16-.65.23-.21.07-.37.14-.48.23-.11.09-.12.2-.04.35.04.04.09.1.16.16.07.07.2.16.41.27.21.11.42.17.63.17.3,0,.54-.13.72-.39ZM47.6,14.59c-.36,0-.6.2-.72.59-.12.39-.14.81-.05,1.26.09.45.24.77.45.96.04-.14.12-.29.24-.42.12-.14.24-.25.37-.35.12-.09.24-.23.34-.41.11-.18.17-.39.18-.62.02-.29-.04-.53-.19-.72-.14-.18-.35-.28-.62-.28Z"/>
        <path class="cls-4" d="M54.42,18.62s.04.05.03.08c0,.03-.04.05-.08.05h-1.02c-.09,0-.16-.03-.22-.08s-.08-.13-.08-.22v-.14c-.35.35-.74.53-1.2.53-.48,0-.9-.2-1.25-.6-.35-.4-.52-.94-.52-1.63s.2-1.26.61-1.64c.4-.38.87-.57,1.4-.57.38,0,.7.09.96.28v-1.04c0-.06-.02-.09-.07-.08-.06,0-.09-.02-.1-.08-.01-.06,0-.1.07-.13.54-.25.92-.42,1.15-.5.07-.02.12-.03.15,0s.04.05.04.09v5.35c0,.16.04.28.13.34ZM53.05,18.06v-3.16c-.19-.18-.41-.27-.66-.27-.35,0-.62.18-.8.54-.18.36-.27.82-.27,1.38,0,.65.09,1.14.26,1.47.17.33.39.49.65.49.3,0,.57-.15.81-.45Z"/>
        <path class="cls-4" d="M56.59,18.62s.04.05.04.08c0,.03-.03.05-.08.05h-1.4s-.07-.02-.08-.05c0-.03,0-.06.03-.08.08-.06.12-.17.12-.33v-3.02c0-.06-.02-.09-.06-.08-.06,0-.09-.02-.1-.08-.01-.06,0-.1.07-.13.55-.26.93-.43,1.15-.51.13-.04.19-.01.19.09v3.72c0,.16.04.28.12.34ZM56.28,13.91c-.12.12-.27.18-.44.18s-.31-.06-.43-.18c-.12-.12-.18-.27-.18-.44s.06-.31.18-.43c.12-.12.26-.18.43-.18s.32.06.44.18c.12.12.18.26.18.43s-.06.32-.18.44Z"/>
        <path class="cls-4" d="M59.38,14.64h-.55v2.95c0,.19.03.37.09.54.06.17.15.25.27.25.04,0,.08,0,.12-.03.02-.01.05-.01.08,0,.03.02.04.04.04.07s-.02.06-.05.09c-.29.22-.56.33-.81.33-.67,0-1-.37-1-1.1v-3.1h-.43c-.08,0-.12-.03-.12-.09s.04-.09.11-.09c.46,0,.82-.12,1.08-.37.25-.24.38-.52.38-.84,0-.11.04-.17.12-.17.08,0,.11.05.11.14v1.23h.54c.08,0,.12.03.12.1,0,.06-.04.08-.11.08Z"/>
        <path class="cls-4" d="M63.95,18.54s.06.02.07.05c0,.03,0,.06-.05.08-.08.06-.29.08-.66.08-.19,0-.35-.03-.48-.1-.13-.07-.22-.13-.27-.2l-.06-.1-.07.06c-.26.29-.63.43-1.09.43-.4,0-.75-.1-1.04-.31-.29-.2-.44-.5-.44-.9,0-.11.03-.24.09-.38.06-.14.17-.3.33-.49.16-.18.42-.35.79-.5.36-.15.8-.25,1.32-.31v-.72c0-.23-.06-.4-.17-.53-.12-.13-.27-.19-.45-.19-.31,0-.56.18-.73.54-.17.36-.2.61-.09.77.02.03.02.06,0,.1-.02.03-.05.06-.07.06-.16.03-.33,0-.5-.1-.17-.09-.25-.24-.25-.43,0-.32.19-.58.56-.79.37-.2.8-.31,1.28-.31s.88.11,1.21.33c.33.22.49.55.49.99v2.28c0,.09,0,.15,0,.18,0,.03.01.09.02.17.01.08.04.14.08.17.04.03.1.05.17.05ZM61.87,18.5c.11,0,.22-.02.31-.07.09-.05.16-.09.2-.14l.06-.07c-.03-.09-.05-.19-.05-.32v-1.8c-.14.03-.26.05-.36.07-.09.02-.22.07-.39.14-.16.07-.29.15-.38.25-.09.1-.17.23-.23.41-.06.18-.08.38-.06.61.03.26.13.47.29.65.16.18.36.26.6.26Z"/>
        <path class="cls-4" d="M66.43,14.64h-.55v2.95c0,.19.03.37.09.54.06.17.15.25.27.25.04,0,.08,0,.12-.03.02-.01.05-.01.08,0,.03.02.04.04.04.07s-.02.06-.05.09c-.29.22-.56.33-.81.33-.67,0-1-.37-1-1.1v-3.1h-.43c-.08,0-.12-.03-.12-.09s.04-.09.11-.09c.46,0,.82-.12,1.08-.37.25-.24.38-.52.38-.84,0-.11.04-.17.12-.17.08,0,.11.05.11.14v1.23h.54c.08,0,.12.03.12.1,0,.06-.04.08-.11.08Z"/>
        <path class="cls-4" d="M68.51,18.62s.04.05.04.08c0,.03-.03.05-.08.05h-1.4s-.07-.02-.08-.05c0-.03,0-.06.03-.08.08-.06.12-.17.12-.33v-3.02c0-.06-.02-.09-.06-.08-.06,0-.09-.02-.1-.08-.01-.06,0-.1.07-.13.55-.26.93-.43,1.15-.51.13-.04.19-.01.19.09v3.72c0,.16.04.28.12.34ZM68.21,13.91c-.12.12-.27.18-.44.18s-.31-.06-.43-.18c-.12-.12-.18-.27-.18-.44s.06-.31.18-.43c.12-.12.26-.18.43-.18s.32.06.44.18c.12.12.18.26.18.43s-.06.32-.18.44Z"/>
        <path class="cls-4" d="M73.16,15.74c.26.58.29,1.15.1,1.73-.19.57-.55.98-1.09,1.22-.26.12-.53.18-.82.18-.43,0-.83-.12-1.2-.37-.37-.25-.65-.58-.84-1.01-.26-.57-.29-1.14-.1-1.72.19-.57.55-.98,1.09-1.23.26-.12.53-.18.81-.18.42,0,.82.13,1.2.38.38.25.66.59.86,1.01ZM71.36,18.21c.31.32.56.43.75.34.19-.09.27-.35.24-.79-.04-.44-.18-.93-.41-1.47-.24-.54-.52-.97-.83-1.28-.31-.32-.56-.43-.75-.34-.19.09-.27.35-.24.8.03.44.17.93.42,1.46.24.54.52.97.83,1.28Z"/>
        <path class="cls-4" d="M77.93,18.62s.04.05.03.08c0,.03-.04.05-.08.05h-1.39s-.07-.02-.08-.05c0-.03,0-.06.03-.08.08-.06.12-.18.12-.34v-2.71c0-.46-.18-.7-.54-.7-.24,0-.48.12-.72.37v3.04c0,.17.04.28.12.34.03.03.04.05.03.08,0,.03-.04.05-.08.05h-1.4s-.07-.02-.08-.05c0-.03,0-.06.04-.08.08-.06.12-.18.12-.34v-3.35c0-.16-.04-.28-.12-.34-.03-.02-.04-.05-.04-.09,0-.03.03-.05.08-.05h1.02c.09,0,.16.03.22.09.06.06.09.13.09.22v.25c.38-.43.86-.65,1.42-.65.31,0,.57.1.77.31.2.21.3.44.3.7v2.91c0,.16.04.28.12.34Z"/>
        <path class="cls-4" d="M43.92,28.04s.03.05.02.1c0,.05-.04.07-.09.07h-1.46c-.1,0-.12-.05-.06-.15.03-.05-.17-.71-.6-1.98h-2.3c-.07.33-.09.63-.06.91.03.28.07.51.13.7.06.18.12.31.18.4.02.03.02.05.01.08,0,.03-.03.05-.06.05h-1.12s-.05,0-.07-.02c-.02-.02-.03-.04-.02-.06.01-.11.05-.26.11-.45.06-.19.12-.34.17-.48.05-.13.12-.3.21-.5.08-.2.13-.32.15-.34.46-1.2.95-2.44,1.47-3.72-.06-.14-.11-.21-.14-.23-.04-.01-.05-.04-.05-.08,0-.04.02-.07.06-.07h1.49c.05,0,.08.02.09.07,0,.04,0,.07-.03.08-.03.02-.04.05-.05.09,0,.04,0,.09.01.16.02.07.03.12.05.17.02.05.04.12.08.21.03.09.06.15.07.18.05.16.31.91.79,2.26.47,1.35.73,2.07.76,2.14.02.05.04.1.06.14.02.04.03.07.05.09.01.02.03.04.05.07.02.02.03.04.04.04,0,0,.02.02.04.03.02.02.04.03.04.03ZM39.5,25.88h2.17l-1.03-2.97c-.57,1.45-.91,2.3-1.01,2.54-.06.16-.1.3-.14.43Z"/>
        <path class="cls-4" d="M47.17,26.1c.5.33.7.73.58,1.21-.06.26-.22.48-.48.66-.27.18-.64.27-1.11.27-.5,0-.91-.1-1.26-.29-.34-.19-.57-.42-.67-.67-.08-.17-.05-.33.07-.48.12-.15.27-.26.44-.32.02,0,.05,0,.08,0,.02,0,.04,0,.06.02.01,0,.02.02.03.03,0,.01.01.03.01.04s0,.03,0,.04c-.06.1-.04.27.06.51.1.24.27.46.52.68.24.21.51.32.8.32.21,0,.35-.06.43-.19.08-.13.08-.28,0-.46-.07-.18-.21-.33-.4-.47-.09-.06-.32-.21-.68-.47s-.62-.42-.75-.51c-.2-.14-.37-.34-.5-.6-.13-.26-.14-.53-.02-.82.11-.28.31-.48.58-.63.28-.14.59-.21.94-.21.66,0,1.18.17,1.57.5.07.06.11.13.12.21,0,.08,0,.14-.03.21-.03.06-.08.13-.14.19-.06.07-.12.12-.17.16-.05.04-.1.07-.14.09-.05.03-.09.03-.13,0-.04-.02-.06-.05-.06-.1,0-.33-.13-.6-.4-.8-.27-.2-.55-.3-.83-.3-.16,0-.28.03-.34.1-.08.08-.13.18-.15.3-.02.12,0,.25.08.4.08.14.2.28.39.4.33.23.83.56,1.51.99Z"/>
        <path class="cls-4" d="M51.23,26.1c.5.33.7.73.58,1.21-.06.26-.22.48-.48.66-.27.18-.64.27-1.11.27-.5,0-.91-.1-1.26-.29-.34-.19-.57-.42-.67-.67-.08-.17-.05-.33.07-.48.12-.15.27-.26.44-.32.02,0,.05,0,.08,0,.02,0,.04,0,.06.02.01,0,.02.02.03.03,0,.01.01.03.01.04s0,.03,0,.04c-.06.1-.04.27.06.51.1.24.27.46.52.68.24.21.51.32.8.32.21,0,.35-.06.43-.19.08-.13.08-.28,0-.46-.07-.18-.21-.33-.4-.47-.09-.06-.32-.21-.68-.47s-.62-.42-.75-.51c-.2-.14-.37-.34-.5-.6-.13-.26-.14-.53-.02-.82.11-.28.31-.48.58-.63.28-.14.59-.21.94-.21.66,0,1.18.17,1.57.5.07.06.11.13.12.21,0,.08,0,.14-.03.21-.03.06-.08.13-.14.19-.06.07-.12.12-.17.16-.05.04-.1.07-.14.09-.05.03-.09.03-.13,0-.04-.02-.06-.05-.06-.1,0-.33-.13-.6-.4-.8-.27-.2-.55-.3-.83-.3-.16,0-.28.03-.34.1-.08.08-.13.18-.15.3-.02.12,0,.25.08.4.08.14.2.28.39.4.33.23.83.56,1.51.99Z"/>
        <path class="cls-4" d="M56.38,25.15c.26.58.29,1.15.1,1.73-.19.57-.55.98-1.09,1.22-.26.12-.53.18-.82.18-.43,0-.83-.12-1.2-.37-.37-.25-.65-.58-.84-1.01-.26-.57-.29-1.14-.1-1.72.19-.57.55-.98,1.09-1.23.26-.12.53-.18.81-.18.42,0,.82.13,1.2.38.38.25.66.59.86,1.01ZM54.58,27.62c.31.32.56.43.75.34.19-.09.27-.35.24-.79-.04-.44-.18-.93-.41-1.47-.24-.54-.52-.97-.83-1.28-.31-.32-.56-.43-.75-.34-.19.09-.27.35-.24.8.03.44.17.93.42,1.46.24.54.52.97.83,1.28Z"/>
        <path class="cls-4" d="M60.95,27.3s.03,0,.06,0c.03.02.04.04.02.07-.17.25-.41.46-.72.64-.31.18-.69.25-1.13.24-.64-.03-1.15-.25-1.53-.64-.38-.4-.57-.93-.57-1.59s.2-1.19.61-1.61c.41-.42.93-.63,1.55-.63.86,0,1.41.27,1.64.81.08.18.02.35-.15.49-.18.15-.4.21-.69.17-.11-.01-.15-.08-.12-.21.06-.24-.02-.48-.23-.71-.21-.23-.45-.34-.71-.34-.11,0-.2.02-.29.07-.25.11-.4.38-.44.81-.04.43,0,.81.14,1.15.19.55.44.96.76,1.25.32.29.64.43.96.43s.59-.13.84-.4Z"/>
        <path class="cls-4" d="M63.03,28.03s.04.05.04.08c0,.03-.03.05-.08.05h-1.4s-.07-.02-.08-.05c0-.03,0-.06.03-.08.08-.06.12-.17.12-.33v-3.02c0-.06-.02-.09-.06-.08-.06,0-.09-.02-.1-.08-.01-.06,0-.1.07-.13.55-.26.93-.43,1.15-.51.13-.04.19-.01.19.09v3.72c0,.16.04.28.12.34ZM62.72,23.32c-.12.12-.27.18-.44.18s-.31-.06-.43-.18c-.12-.12-.18-.27-.18-.44s.06-.31.18-.43c.12-.12.26-.18.43-.18s.32.06.44.18c.12.12.18.26.18.43s-.06.32-.18.44Z"/>
        <path class="cls-4" d="M67.68,27.95s.06.02.07.05c0,.03,0,.06-.05.08-.08.06-.29.08-.66.08-.19,0-.35-.03-.48-.1-.13-.07-.22-.13-.27-.2l-.06-.1-.07.06c-.26.29-.63.43-1.09.43-.4,0-.75-.1-1.04-.31-.29-.2-.44-.5-.44-.9,0-.11.03-.24.09-.38.06-.14.17-.3.33-.49.16-.18.42-.35.79-.5.36-.15.8-.25,1.32-.31v-.72c0-.23-.06-.4-.17-.53-.12-.13-.27-.19-.45-.19-.31,0-.56.18-.73.54-.17.36-.2.61-.09.77.02.03.02.06,0,.1-.02.03-.05.06-.07.06-.16.03-.33,0-.5-.1-.17-.09-.25-.24-.25-.43,0-.32.19-.58.56-.79.37-.2.8-.31,1.28-.31s.88.11,1.21.33c.33.22.49.55.49.99v2.28c0,.09,0,.15,0,.18,0,.03.01.09.02.17.01.08.04.14.08.17.04.03.1.05.17.05ZM65.6,27.91c.11,0,.22-.02.31-.07.09-.05.16-.09.2-.14l.06-.07c-.03-.09-.05-.19-.05-.32v-1.8c-.14.03-.26.05-.36.07-.09.02-.22.07-.39.14-.16.07-.29.15-.38.25-.09.1-.17.23-.23.41-.06.18-.08.38-.06.61.03.26.13.47.29.65.16.18.36.26.6.26Z"/>
        <path class="cls-4" d="M70.17,24.05h-.55v2.95c0,.19.03.37.09.54.06.17.15.25.27.25.04,0,.08,0,.12-.03.02-.01.05-.01.08,0,.03.02.04.04.04.07s-.02.06-.05.09c-.29.22-.56.33-.81.33-.67,0-1-.37-1-1.1v-3.1h-.43c-.08,0-.12-.03-.12-.09s.04-.09.11-.09c.46,0,.82-.12,1.08-.37.25-.24.38-.52.38-.84,0-.11.04-.17.12-.17.08,0,.11.05.11.14v1.23h.54c.08,0,.12.03.12.1,0,.06-.04.08-.11.08Z"/>
        <path class="cls-4" d="M72.25,28.03s.04.05.04.08c0,.03-.03.05-.08.05h-1.4s-.07-.02-.08-.05c0-.03,0-.06.03-.08.08-.06.12-.17.12-.33v-3.02c0-.06-.02-.09-.06-.08-.06,0-.09-.02-.1-.08-.01-.06,0-.1.07-.13.55-.26.93-.43,1.15-.51.13-.04.19-.01.19.09v3.72c0,.16.04.28.12.34ZM71.94,23.32c-.12.12-.27.18-.44.18s-.31-.06-.43-.18c-.12-.12-.18-.27-.18-.44s.06-.31.18-.43c.12-.12.26-.18.43-.18s.32.06.44.18c.12.12.18.26.18.43s-.06.32-.18.44Z"/>
        <path class="cls-4" d="M76.9,25.15c.26.58.29,1.15.1,1.73-.19.57-.55.98-1.09,1.22-.26.12-.53.18-.82.18-.43,0-.83-.12-1.2-.37-.37-.25-.65-.58-.84-1.01-.26-.57-.29-1.14-.1-1.72.19-.57.55-.98,1.09-1.23.26-.12.53-.18.81-.18.42,0,.82.13,1.2.38.38.25.66.59.86,1.01ZM75.1,27.62c.31.32.56.43.75.34.19-.09.27-.35.24-.79-.04-.44-.18-.93-.41-1.47-.24-.54-.52-.97-.83-1.28-.31-.32-.56-.43-.75-.34-.19.09-.27.35-.24.8.03.44.17.93.42,1.46.24.54.52.97.83,1.28Z"/>
        <path class="cls-4" d="M81.67,28.03s.04.05.03.08c0,.03-.04.05-.08.05h-1.39s-.07-.02-.08-.05c0-.03,0-.06.03-.08.08-.06.12-.18.12-.34v-2.71c0-.46-.18-.7-.54-.7-.24,0-.48.12-.72.37v3.04c0,.17.04.28.12.34.03.03.04.05.03.08,0,.03-.04.05-.08.05h-1.4s-.07-.02-.08-.05c0-.03,0-.06.04-.08.08-.06.12-.18.12-.34v-3.35c0-.16-.04-.28-.12-.34-.03-.02-.04-.05-.04-.09,0-.03.03-.05.08-.05h1.02c.09,0,.16.03.22.09.06.06.09.13.09.22v.25c.38-.43.86-.65,1.42-.65.31,0,.57.1.77.31.2.21.3.44.3.7v2.91c0,.16.04.28.12.34Z"/>
      </g>
      <g>
        <circle class="cls-1" cx="28.63" cy="2.9" r="1.37"/>
        <path class="cls-5" d="M25.22,24.7c-6.07,5.18-15.19,4.45-20.37-1.62C.51,17.99.32,10.75,3.96,5.49c-5.13,5.78-5.35,14.61-.19,20.66,5.64,6.62,15.59,7.41,22.21,1.77,6.36-5.42,7.34-14.8,2.41-21.4,3.4,5.92,2.22,13.6-3.16,18.18Z"/>
        <path class="cls-3" d="M8.66,21.55c-4.42-5.19-3.8-12.98,1.39-17.41C14.4.43,20.58.27,25.08,3.38c-4.94-4.38-12.48-4.57-17.65-.17-5.66,4.82-6.33,13.32-1.51,18.98,4.63,5.43,12.65,6.27,18.29,2.06-5.06,2.91-11.62,1.9-15.54-2.7Z"/>
        <path class="cls-2" d="M17.05,4.9c5.52.23,9.8,4.89,9.57,10.41-.19,4.63-3.51,8.39-7.82,9.34,5.33-.52,9.59-4.89,9.82-10.39.25-6.02-4.42-11.1-10.44-11.35-5.78-.24-10.69,4.06-11.3,9.73,1.06-4.6,5.27-7.94,10.16-7.74Z"/>
      </g>
    </g>
  </g>
</svg>