<svg width="85" height="32" viewBox="0 0 85 32" fill="none" xmlns="http://www.w3.org/2000/svg">
<g clip-path="url(#clip0_61_88)">
<path d="M28.13 1.97C28.64 2.51 28.64 3.39 28.13 3.93C27.62 4.47 26.8 4.47 26.29 3.93C25.78 3.39 25.78 2.51 26.29 1.97C26.8 1.43 27.62 1.43 28.13 1.97Z" fill="#FFE200"/>
<path d="M23.97 24.95C18.2 30.18 9.52999 29.44 4.60999 23.31C0.47999 18.17 0.30999 10.87 3.75999 5.56C-1.12001 11.4 -1.33001 20.3 3.57999 26.41C8.93999 33.09 18.39 33.89 24.68 28.2C30.72 22.73 31.65 13.26 26.97 6.6C30.2 12.57 29.08 20.32 23.97 24.95Z" fill="#253B28"/>
<path d="M15.37 27.21C8.3 27.21 2.56 21.12 2.56 13.61C2.56 6.1 8.29 0 15.37 0C22.45 0 28.18 6.09 28.18 13.6C28.18 21.11 22.45 27.2 15.37 27.2V27.21ZM28.17 13.6C28.17 6.93 23.08 1.53 16.81 1.53C10.54 1.53 5.45 6.94 5.45 13.6C5.45 20.26 10.54 25.67 16.81 25.67C23.08 25.67 28.17 20.27 28.17 13.6Z" fill="#006D31"/>
<path d="M39.5 8.59001C39.5 8.77001 39.54 8.89001 39.62 8.95001C39.65 8.98001 39.66 9.01001 39.65 9.05001C39.65 9.09001 39.61 9.11001 39.57 9.11001H38.16C38.16 9.11001 38.1 9.09001 38.09 9.05001C38.09 9.01001 38.09 8.98001 38.12 8.95001C38.2 8.89001 38.24 8.77001 38.24 8.60001V3.27001C38.24 3.09001 38.2 2.96001 38.12 2.90001C38.09 2.87001 38.08 2.84001 38.08 2.81001C38.08 2.78001 38.11 2.76001 38.16 2.76001H39.57C39.57 2.76001 39.64 2.78001 39.65 2.81001C39.65 2.84001 39.65 2.87001 39.62 2.90001C39.54 2.96001 39.5 3.08001 39.5 3.25001V8.59001Z" fill="#231815"/>
<path d="M44.35 8.90002C44.35 8.90002 44.39 8.96002 44.38 8.99002C44.38 9.02002 44.34 9.04002 44.3 9.04002H42.9C42.9 9.04002 42.83 9.02002 42.82 8.99002C42.82 8.96002 42.82 8.93002 42.85 8.90002C42.93 8.83002 42.97 8.71002 42.97 8.54002V5.64002C42.97 5.14002 42.79 4.90002 42.43 4.90002C42.18 4.90002 41.94 5.03002 41.71 5.29002V8.54002C41.71 8.72002 41.75 8.84002 41.83 8.90002C41.86 8.93002 41.87 8.96002 41.86 8.99002C41.86 9.02002 41.82 9.04002 41.78 9.04002H40.37C40.37 9.04002 40.3 9.02002 40.29 8.99002C40.29 8.96002 40.29 8.93002 40.33 8.90002C40.41 8.83002 40.45 8.71002 40.45 8.54002V4.96002C40.45 4.79002 40.41 4.67002 40.33 4.60002C40.3 4.57002 40.29 4.54002 40.29 4.50002C40.29 4.46002 40.32 4.44002 40.37 4.44002H41.39C41.48 4.44002 41.55 4.47002 41.61 4.54002C41.67 4.60002 41.7 4.68002 41.7 4.78002V5.05002C42.08 4.59002 42.56 4.36002 43.13 4.36002C43.45 4.36002 43.7 4.47002 43.91 4.69002C44.11 4.91002 44.21 5.16002 44.21 5.43002V8.54002C44.21 8.71002 44.25 8.84002 44.33 8.90002H44.35Z" fill="#231815"/>
<path d="M47.03 4.64H46.48V7.79C46.48 8 46.51 8.19 46.57 8.37C46.63 8.55 46.72 8.64 46.84 8.64C46.88 8.64 46.92 8.63 46.96 8.61C46.99 8.6 47.01 8.6 47.04 8.61C47.07 8.63 47.08 8.65 47.08 8.68C47.08 8.71 47.06 8.74 47.03 8.78C46.73 9.01 46.46 9.13 46.22 9.13C45.55 9.13 45.22 8.74 45.22 7.95V4.64H44.78C44.7 4.64 44.66 4.61 44.66 4.54C44.66 4.47 44.7 4.44 44.77 4.44C45.24 4.44 45.6 4.31 45.85 4.05C46.11 3.79 46.23 3.49 46.23 3.15C46.23 3.03 46.27 2.97 46.35 2.97C46.43 2.97 46.46 3.02 46.46 3.12V4.44H47C47.08 4.44 47.12 4.48 47.12 4.55C47.12 4.61 47.08 4.64 47.01 4.64H47.03Z" fill="#231815"/>
<path d="M51.17 8.14001C51.17 8.14001 51.24 8.10001 51.27 8.15001C51.3 8.18001 51.3 8.21001 51.27 8.24001C51.15 8.48001 50.92 8.69001 50.59 8.86001C50.26 9.03001 49.87 9.12001 49.43 9.12001C48.81 9.12001 48.3 8.91001 47.91 8.49001C47.52 8.07001 47.32 7.50001 47.29 6.80001C47.27 6.11001 47.46 5.53001 47.85 5.06001C48.26 4.58001 48.79 4.35001 49.44 4.35001C49.98 4.35001 50.42 4.49001 50.75 4.78001C51.08 5.07001 51.24 5.41001 51.24 5.81001C51.24 6.13001 51.16 6.39001 50.99 6.60001C50.82 6.81001 50.63 6.96001 50.4 7.05001C50.18 7.14001 49.96 7.22001 49.74 7.29001C49.53 7.36001 49.36 7.44001 49.26 7.54001C49.15 7.63001 49.14 7.76001 49.22 7.91001C49.26 7.96001 49.31 8.02001 49.38 8.09001C49.45 8.16001 49.58 8.26001 49.79 8.38001C50 8.50001 50.21 8.56001 50.42 8.56001C50.72 8.56001 50.97 8.42001 51.15 8.15001L51.17 8.14001ZM49.3 4.58001C48.94 4.58001 48.7 4.79001 48.58 5.21001C48.46 5.63001 48.44 6.08001 48.53 6.56001C48.62 7.04001 48.77 7.38001 48.98 7.58001C49.02 7.43001 49.1 7.27001 49.22 7.13001C49.34 6.98001 49.47 6.86001 49.59 6.76001C49.71 6.66001 49.83 6.51001 49.94 6.32001C50.05 6.13001 50.11 5.90001 50.12 5.66001C50.14 5.34001 50.08 5.09001 49.93 4.89001C49.78 4.69001 49.58 4.59001 49.31 4.59001L49.3 4.58001Z" fill="#231815"/>
<path d="M54.97 4.65003C55.06 4.80003 55.09 4.94003 55.04 5.09003C54.99 5.23003 54.94 5.34003 54.88 5.42003C54.82 5.50003 54.76 5.56003 54.7 5.60003C54.65 5.63003 54.6 5.64003 54.54 5.64003C54.48 5.64003 54.43 5.62003 54.41 5.58003C54.2 5.18003 53.96 4.99003 53.68 4.99003C53.53 4.99003 53.4 5.06003 53.26 5.20003V8.54003C53.26 8.72003 53.3 8.84003 53.38 8.90003C53.41 8.93003 53.42 8.96003 53.41 8.99003C53.41 9.02003 53.37 9.04003 53.33 9.04003H51.92C51.92 9.04003 51.86 9.02003 51.85 8.99003C51.85 8.96003 51.85 8.93003 51.88 8.90003C51.96 8.83003 52 8.71003 52 8.54003V4.96003C52 4.79003 51.96 4.67003 51.88 4.60003C51.85 4.57003 51.84 4.54003 51.84 4.50003C51.84 4.46003 51.87 4.44003 51.92 4.44003H52.94C53.03 4.44003 53.1 4.47003 53.16 4.54003C53.22 4.60003 53.25 4.68003 53.25 4.78003V4.94003C53.48 4.54003 53.82 4.34003 54.25 4.34003C54.61 4.34003 54.85 4.45003 54.96 4.66003L54.97 4.65003Z" fill="#231815"/>
<path d="M59.49 8.90002C59.49 8.90002 59.53 8.96002 59.52 8.99002C59.52 9.02002 59.48 9.04002 59.44 9.04002H58.04C58.04 9.04002 57.97 9.02002 57.96 8.99002C57.96 8.96002 57.96 8.93002 57.99 8.90002C58.07 8.83002 58.11 8.71002 58.11 8.54002V5.64002C58.11 5.14002 57.93 4.90002 57.57 4.90002C57.32 4.90002 57.08 5.03002 56.85 5.29002V8.54002C56.85 8.72002 56.89 8.84002 56.97 8.90002C57 8.93002 57.01 8.96002 57 8.99002C57 9.02002 56.96 9.04002 56.92 9.04002H55.51C55.51 9.04002 55.44 9.02002 55.43 8.99002C55.43 8.96002 55.43 8.93002 55.47 8.90002C55.55 8.83002 55.59 8.71002 55.59 8.54002V4.96002C55.59 4.79002 55.55 4.67002 55.47 4.60002C55.44 4.57002 55.43 4.54002 55.43 4.50002C55.43 4.46002 55.46 4.44002 55.51 4.44002H56.53C56.62 4.44002 56.69 4.47002 56.75 4.54002C56.81 4.60002 56.84 4.68002 56.84 4.78002V5.05002C57.22 4.59002 57.7 4.36002 58.27 4.36002C58.59 4.36002 58.84 4.47002 59.05 4.69002C59.25 4.91002 59.35 5.16002 59.35 5.43002V8.54002C59.35 8.71002 59.39 8.84002 59.47 8.90002H59.49Z" fill="#231815"/>
<path d="M64.15 8.81002C64.15 8.81002 64.21 8.83002 64.22 8.87002C64.22 8.91002 64.22 8.94002 64.17 8.96002C64.09 9.02002 63.87 9.05002 63.51 9.05002C63.32 9.05002 63.16 9.01002 63.02 8.94002C62.88 8.87002 62.79 8.80002 62.75 8.73002L62.69 8.62002L62.62 8.68002C62.35 8.99002 61.99 9.14002 61.52 9.14002C61.12 9.14002 60.77 9.03002 60.48 8.81002C60.19 8.59002 60.04 8.27002 60.03 7.85002C60.03 7.73002 60.06 7.59002 60.12 7.44002C60.18 7.29002 60.29 7.11002 60.45 6.92002C60.61 6.72002 60.87 6.54002 61.24 6.39002C61.61 6.23002 62.05 6.12002 62.57 6.06002V5.29002C62.57 5.05002 62.51 4.86002 62.39 4.73002C62.27 4.60002 62.12 4.53002 61.94 4.53002C61.62 4.53002 61.38 4.72002 61.21 5.10002C61.04 5.48002 61.01 5.76002 61.12 5.92002C61.14 5.95002 61.14 5.99002 61.12 6.03002C61.1 6.07002 61.07 6.09002 61.05 6.10002C60.89 6.13002 60.72 6.09002 60.55 5.99002C60.38 5.89002 60.29 5.74002 60.29 5.53002C60.29 5.19002 60.48 4.91002 60.85 4.69002C61.23 4.47002 61.66 4.36002 62.14 4.36002C62.62 4.36002 63.03 4.48002 63.36 4.71002C63.69 4.94002 63.86 5.30002 63.86 5.77002V8.20002C63.86 8.29002 63.86 8.36002 63.86 8.40002C63.86 8.44002 63.87 8.50002 63.88 8.59002C63.89 8.68002 63.92 8.74002 63.97 8.78002C64.01 8.82002 64.07 8.84002 64.14 8.84002L64.15 8.81002ZM62.06 8.77002C62.17 8.77002 62.28 8.74002 62.37 8.69002C62.46 8.64002 62.53 8.59002 62.57 8.54002L62.63 8.47002C62.6 8.38002 62.58 8.26002 62.58 8.13002V6.21002C62.43 6.24002 62.31 6.26002 62.22 6.29002C62.13 6.31002 62 6.36002 61.83 6.44002C61.67 6.51002 61.54 6.60002 61.45 6.71002C61.36 6.81002 61.28 6.96002 61.22 7.15002C61.16 7.34002 61.14 7.56002 61.16 7.80002C61.19 8.08002 61.29 8.31002 61.45 8.49002C61.61 8.68002 61.82 8.77002 62.06 8.77002Z" fill="#231815"/>
<path d="M66.65 4.64H66.1V7.79C66.1 8 66.13 8.19 66.19 8.37C66.25 8.55 66.34 8.64 66.46 8.64C66.5 8.64 66.54 8.63 66.58 8.61C66.61 8.6 66.63 8.6 66.66 8.61C66.69 8.63 66.7 8.65 66.7 8.68C66.7 8.71 66.68 8.74 66.65 8.78C66.35 9.01 66.08 9.13 65.84 9.13C65.17 9.13 64.84 8.74 64.84 7.95V4.64H64.4C64.32 4.64 64.28 4.61 64.28 4.54C64.28 4.47 64.32 4.44 64.39 4.44C64.86 4.44 65.22 4.31 65.47 4.05C65.73 3.79 65.85 3.49 65.85 3.15C65.85 3.03 65.89 2.97 65.97 2.97C66.05 2.97 66.08 3.02 66.08 3.12V4.44H66.62C66.7 4.44 66.74 4.48 66.74 4.55C66.74 4.61 66.7 4.64 66.63 4.64H66.65Z" fill="#231815"/>
<path d="M68.74 8.90002C68.74 8.90002 68.78 8.96002 68.78 8.99002C68.78 9.02002 68.75 9.04002 68.7 9.04002H67.29C67.29 9.04002 67.22 9.02002 67.21 8.99002C67.21 8.96002 67.21 8.93002 67.24 8.90002C67.32 8.84002 67.36 8.72002 67.36 8.55002V5.32002C67.36 5.25002 67.34 5.22002 67.3 5.23002C67.24 5.23002 67.21 5.21002 67.2 5.14002C67.19 5.08002 67.2 5.03002 67.27 5.00002C67.83 4.73002 68.21 4.54002 68.43 4.46002C68.56 4.41002 68.62 4.45002 68.62 4.56002V8.53002C68.62 8.70002 68.66 8.83002 68.74 8.89002V8.90002ZM68.43 3.86002C68.31 3.99002 68.16 4.06002 67.99 4.06002C67.82 4.06002 67.67 3.99002 67.55 3.86002C67.43 3.73002 67.37 3.57002 67.37 3.39002C67.37 3.21002 67.43 3.05002 67.55 2.93002C67.67 2.80002 67.82 2.74002 67.99 2.74002C68.16 2.74002 68.31 2.80002 68.43 2.93002C68.55 3.06002 68.61 3.21002 68.61 3.39002C68.61 3.57002 68.55 3.73002 68.43 3.86002Z" fill="#231815"/>
<path d="M73.42 5.82003C73.68 6.44003 73.71 7.05003 73.52 7.67003C73.33 8.28003 72.96 8.72003 72.43 8.97003C72.17 9.10003 71.9 9.16003 71.61 9.16003C71.18 9.16003 70.78 9.03003 70.4 8.76003C70.02 8.50003 69.74 8.13003 69.55 7.68003C69.29 7.07003 69.26 6.46003 69.45 5.84003C69.64 5.23003 70.01 4.79003 70.54 4.53003C70.8 4.40003 71.07 4.34003 71.35 4.34003C71.77 4.34003 72.17 4.47003 72.55 4.74003C72.93 5.01003 73.22 5.37003 73.41 5.82003H73.42ZM71.61 8.46003C71.92 8.80003 72.17 8.92003 72.37 8.83003C72.57 8.74003 72.64 8.45003 72.61 7.99003C72.57 7.52003 72.43 7.00003 72.19 6.42003C71.94 5.84003 71.67 5.39003 71.36 5.05003C71.05 4.71003 70.8 4.59003 70.6 4.68003C70.4 4.77003 70.32 5.06003 70.36 5.53003C70.39 6.00003 70.54 6.52003 70.78 7.09003C71.03 7.67003 71.3 8.12003 71.61 8.46003Z" fill="#231815"/>
<path d="M78.22 8.90002C78.22 8.90002 78.26 8.96002 78.25 8.99002C78.25 9.02002 78.21 9.04002 78.17 9.04002H76.77C76.77 9.04002 76.7 9.02002 76.69 8.99002C76.69 8.96002 76.69 8.93002 76.72 8.90002C76.8 8.83002 76.84 8.71002 76.84 8.54002V5.64002C76.84 5.14002 76.66 4.90002 76.3 4.90002C76.05 4.90002 75.81 5.03002 75.58 5.29002V8.54002C75.58 8.72002 75.62 8.84002 75.7 8.90002C75.73 8.93002 75.74 8.96002 75.73 8.99002C75.73 9.02002 75.69 9.04002 75.65 9.04002H74.24C74.24 9.04002 74.17 9.02002 74.16 8.99002C74.16 8.96002 74.16 8.93002 74.2 8.90002C74.28 8.83002 74.32 8.71002 74.32 8.54002V4.96002C74.32 4.79002 74.28 4.67002 74.2 4.60002C74.17 4.57002 74.16 4.54002 74.16 4.50002C74.16 4.46002 74.19 4.44002 74.24 4.44002H75.26C75.35 4.44002 75.42 4.47002 75.48 4.54002C75.54 4.60002 75.57 4.68002 75.57 4.78002V5.05002C75.95 4.59002 76.43 4.36002 77 4.36002C77.32 4.36002 77.57 4.47002 77.78 4.69002C77.98 4.91002 78.08 5.16002 78.08 5.43002V8.54002C78.08 8.71002 78.12 8.84002 78.2 8.90002H78.22Z" fill="#231815"/>
<path d="M82.88 8.81002C82.88 8.81002 82.94 8.83002 82.95 8.87002C82.95 8.91002 82.95 8.94002 82.9 8.96002C82.82 9.02002 82.6 9.05002 82.24 9.05002C82.05 9.05002 81.89 9.01002 81.75 8.94002C81.61 8.87002 81.52 8.80002 81.48 8.73002L81.42 8.62002L81.35 8.68002C81.08 8.99002 80.72 9.14002 80.25 9.14002C79.85 9.14002 79.5 9.03002 79.21 8.81002C78.92 8.59002 78.77 8.27002 78.76 7.85002C78.76 7.73002 78.79 7.59002 78.85 7.44002C78.91 7.29002 79.02 7.11002 79.18 6.92002C79.34 6.72002 79.6 6.54002 79.97 6.39002C80.34 6.23002 80.78 6.12002 81.3 6.06002V5.29002C81.3 5.05002 81.24 4.86002 81.12 4.73002C81 4.60002 80.85 4.53002 80.67 4.53002C80.35 4.53002 80.11 4.72002 79.94 5.10002C79.77 5.48002 79.74 5.76002 79.85 5.92002C79.87 5.95002 79.87 5.99002 79.85 6.03002C79.83 6.07002 79.8 6.09002 79.78 6.10002C79.62 6.13002 79.45 6.09002 79.28 5.99002C79.11 5.89002 79.02 5.74002 79.02 5.53002C79.02 5.19002 79.21 4.91002 79.58 4.69002C79.96 4.47002 80.39 4.36002 80.87 4.36002C81.35 4.36002 81.76 4.48002 82.09 4.71002C82.42 4.94002 82.59 5.30002 82.59 5.77002V8.20002C82.59 8.29002 82.59 8.36002 82.59 8.40002C82.59 8.44002 82.6 8.50002 82.61 8.59002C82.62 8.68002 82.65 8.74002 82.7 8.78002C82.74 8.82002 82.8 8.84002 82.87 8.84002L82.88 8.81002ZM80.78 8.77002C80.89 8.77002 81 8.74002 81.09 8.69002C81.18 8.64002 81.25 8.59002 81.29 8.54002L81.35 8.47002C81.32 8.38002 81.3 8.26002 81.3 8.13002V6.21002C81.15 6.24002 81.03 6.26002 80.94 6.29002C80.85 6.31002 80.72 6.36002 80.55 6.44002C80.39 6.51002 80.26 6.60002 80.17 6.71002C80.08 6.81002 80 6.96002 79.94 7.15002C79.88 7.34002 79.86 7.56002 79.88 7.80002C79.91 8.08002 80.01 8.31002 80.17 8.49002C80.33 8.68002 80.54 8.77002 80.78 8.77002Z" fill="#231815"/>
<path d="M84.96 8.90001C84.96 8.90001 85 8.96001 85 8.99001C85 9.02001 84.97 9.04001 84.92 9.04001H83.51C83.51 9.04001 83.44 9.02001 83.43 8.99001C83.43 8.96001 83.43 8.93001 83.46 8.90001C83.54 8.84001 83.58 8.72001 83.58 8.55001V3.58001C83.58 3.51001 83.56 3.47001 83.52 3.48001C83.46 3.48001 83.43 3.46001 83.42 3.39001C83.41 3.33001 83.42 3.28001 83.49 3.25001C83.96 3.02001 84.34 2.84001 84.65 2.72001C84.71 2.69001 84.76 2.69001 84.79 2.71001C84.82 2.73001 84.84 2.76001 84.84 2.81001V8.53001C84.84 8.70001 84.88 8.83001 84.96 8.89001V8.90001Z" fill="#231815"/>
<path d="M44.25 18.64C44.25 18.81 44.29 18.94 44.38 19C44.41 19.03 44.42 19.06 44.41 19.1C44.41 19.14 44.37 19.16 44.33 19.16H42.92C42.92 19.16 42.85 19.14 42.84 19.1C42.84 19.06 42.84 19.03 42.88 19C42.96 18.95 43 18.83 43 18.65V13.52L41.07 19.01C41.05 19.07 41.01 19.1 40.96 19.1C40.9 19.1 40.86 19.07 40.84 19.02L38.45 13.54V18.64C38.45 18.82 38.49 18.94 38.57 19C38.6 19.03 38.61 19.06 38.6 19.1C38.6 19.14 38.56 19.16 38.52 19.16H38.15C38.15 19.16 38.09 19.14 38.08 19.1C38.08 19.06 38.08 19.03 38.11 19C38.19 18.94 38.23 18.82 38.23 18.65V13.32C38.23 13.14 38.19 13.01 38.11 12.95C38.08 12.92 38.07 12.89 38.07 12.86C38.07 12.83 38.1 12.81 38.15 12.81H39.37C39.5 12.81 39.58 12.86 39.62 12.96L41.45 17.22L42.97 12.94C43 12.85 43.06 12.81 43.16 12.81H44.32C44.32 12.81 44.39 12.83 44.4 12.86C44.4 12.89 44.4 12.92 44.37 12.95C44.29 13.01 44.25 13.13 44.25 13.3V18.64Z" fill="#231815"/>
<path d="M48.87 18.2C48.87 18.2 48.94 18.16 48.97 18.21C49 18.24 49 18.27 48.97 18.3C48.85 18.54 48.62 18.75 48.29 18.92C47.96 19.09 47.57 19.18 47.13 19.18C46.51 19.18 46 18.97 45.61 18.55C45.22 18.13 45.02 17.56 44.99 16.86C44.97 16.17 45.16 15.59 45.55 15.12C45.96 14.64 46.49 14.41 47.14 14.41C47.68 14.41 48.12 14.55 48.45 14.84C48.78 15.13 48.94 15.47 48.94 15.87C48.94 16.19 48.86 16.45 48.69 16.66C48.52 16.87 48.33 17.02 48.1 17.11C47.88 17.2 47.66 17.28 47.44 17.35C47.23 17.42 47.06 17.5 46.96 17.6C46.85 17.69 46.84 17.82 46.92 17.97C46.96 18.02 47.01 18.08 47.08 18.15C47.15 18.22 47.28 18.32 47.49 18.44C47.7 18.56 47.91 18.62 48.12 18.62C48.42 18.62 48.67 18.48 48.85 18.21L48.87 18.2ZM47.01 14.64C46.65 14.64 46.41 14.85 46.29 15.27C46.17 15.69 46.15 16.14 46.24 16.62C46.33 17.1 46.48 17.44 46.69 17.64C46.73 17.49 46.81 17.33 46.93 17.19C47.05 17.04 47.18 16.92 47.3 16.82C47.42 16.72 47.54 16.57 47.65 16.38C47.76 16.19 47.82 15.96 47.83 15.72C47.85 15.4 47.79 15.15 47.64 14.95C47.49 14.75 47.29 14.65 47.02 14.65L47.01 14.64Z" fill="#231815"/>
<path d="M53.86 18.96C53.86 18.96 53.9 19.02 53.89 19.05C53.89 19.08 53.85 19.1 53.81 19.1H52.79C52.7 19.1 52.63 19.07 52.57 19.01C52.51 18.95 52.48 18.87 52.48 18.78V18.63C52.13 19.01 51.73 19.19 51.28 19.19C50.79 19.19 50.38 18.98 50.03 18.55C49.68 18.12 49.5 17.54 49.5 16.81C49.5 16.08 49.7 15.46 50.11 15.06C50.52 14.65 50.99 14.45 51.52 14.45C51.9 14.45 52.22 14.55 52.49 14.75V13.63C52.49 13.56 52.47 13.53 52.42 13.54C52.36 13.54 52.33 13.52 52.32 13.45C52.31 13.39 52.32 13.34 52.39 13.31C52.93 13.04 53.32 12.86 53.55 12.78C53.62 12.75 53.67 12.75 53.7 12.77C53.73 12.79 53.74 12.82 53.74 12.87V18.59C53.74 18.76 53.78 18.89 53.87 18.95L53.86 18.96ZM52.49 18.35V14.97C52.29 14.78 52.07 14.68 51.83 14.68C51.48 14.68 51.21 14.87 51.03 15.25C50.85 15.63 50.76 16.13 50.76 16.73C50.76 17.43 50.85 17.95 51.02 18.3C51.19 18.65 51.41 18.83 51.68 18.83C51.98 18.83 52.25 18.67 52.49 18.35Z" fill="#231815"/>
<path d="M56.05 18.96C56.05 18.96 56.09 19.02 56.09 19.05C56.09 19.08 56.06 19.1 56.01 19.1H54.6C54.6 19.1 54.53 19.08 54.52 19.05C54.52 19.02 54.52 18.99 54.55 18.96C54.63 18.9 54.67 18.78 54.67 18.61V15.38C54.67 15.31 54.65 15.28 54.61 15.29C54.55 15.29 54.52 15.27 54.51 15.2C54.5 15.14 54.51 15.09 54.58 15.06C55.14 14.79 55.52 14.6 55.74 14.52C55.87 14.47 55.93 14.51 55.93 14.62V18.59C55.93 18.76 55.97 18.89 56.05 18.95V18.96ZM55.74 13.92C55.62 14.05 55.47 14.12 55.3 14.12C55.13 14.12 54.98 14.05 54.86 13.92C54.74 13.79 54.68 13.63 54.68 13.45C54.68 13.27 54.74 13.11 54.86 12.99C54.98 12.86 55.13 12.8 55.3 12.8C55.47 12.8 55.62 12.86 55.74 12.99C55.86 13.12 55.92 13.27 55.92 13.45C55.92 13.63 55.86 13.79 55.74 13.92Z" fill="#231815"/>
<path d="M58.86 14.7H58.31V17.85C58.31 18.06 58.34 18.25 58.4 18.43C58.46 18.61 58.55 18.7 58.67 18.7C58.71 18.7 58.75 18.69 58.79 18.67C58.82 18.66 58.84 18.66 58.87 18.67C58.9 18.69 58.91 18.71 58.91 18.74C58.91 18.77 58.89 18.8 58.86 18.84C58.56 19.07 58.29 19.19 58.05 19.19C57.38 19.19 57.05 18.8 57.05 18.01V14.7H56.61C56.53 14.7 56.49 14.67 56.49 14.6C56.49 14.53 56.53 14.5 56.6 14.5C57.07 14.5 57.43 14.37 57.68 14.11C57.94 13.85 58.06 13.55 58.06 13.21C58.06 13.09 58.1 13.03 58.18 13.03C58.26 13.03 58.29 13.08 58.29 13.18V14.5H58.83C58.91 14.5 58.95 14.54 58.95 14.61C58.95 14.67 58.91 14.7 58.84 14.7H58.86Z" fill="#231815"/>
<path d="M63.46 18.86C63.46 18.86 63.52 18.88 63.53 18.92C63.53 18.96 63.53 18.99 63.48 19.01C63.4 19.07 63.18 19.1 62.82 19.1C62.63 19.1 62.47 19.06 62.33 18.99C62.19 18.92 62.1 18.85 62.06 18.78L62 18.67L61.93 18.73C61.66 19.04 61.3 19.19 60.83 19.19C60.43 19.19 60.08 19.08 59.79 18.86C59.5 18.64 59.35 18.32 59.34 17.9C59.34 17.78 59.37 17.64 59.43 17.49C59.49 17.34 59.6 17.16 59.76 16.97C59.92 16.77 60.18 16.59 60.55 16.44C60.92 16.28 61.36 16.17 61.88 16.11V15.34C61.88 15.1 61.82 14.91 61.7 14.78C61.58 14.65 61.43 14.58 61.25 14.58C60.93 14.58 60.69 14.77 60.52 15.15C60.35 15.53 60.32 15.81 60.43 15.97C60.45 16 60.45 16.04 60.43 16.08C60.41 16.12 60.38 16.14 60.36 16.15C60.2 16.18 60.03 16.14 59.86 16.04C59.69 15.94 59.6 15.79 59.6 15.58C59.6 15.24 59.79 14.96 60.16 14.74C60.54 14.52 60.97 14.41 61.45 14.41C61.93 14.41 62.34 14.53 62.67 14.76C63 14.99 63.17 15.35 63.17 15.82V18.25C63.17 18.34 63.17 18.41 63.17 18.45C63.17 18.49 63.18 18.55 63.19 18.64C63.2 18.73 63.23 18.79 63.28 18.83C63.32 18.87 63.38 18.89 63.45 18.89L63.46 18.86ZM61.36 18.82C61.47 18.82 61.58 18.79 61.67 18.74C61.76 18.69 61.83 18.64 61.87 18.59L61.93 18.52C61.9 18.43 61.88 18.31 61.88 18.18V16.26C61.73 16.29 61.61 16.31 61.52 16.34C61.43 16.36 61.3 16.41 61.13 16.49C60.97 16.56 60.84 16.65 60.75 16.76C60.66 16.86 60.58 17.01 60.52 17.2C60.46 17.39 60.44 17.61 60.46 17.85C60.49 18.13 60.59 18.36 60.75 18.54C60.91 18.73 61.12 18.82 61.36 18.82Z" fill="#231815"/>
<path d="M65.96 14.7H65.41V17.85C65.41 18.06 65.44 18.25 65.5 18.43C65.56 18.61 65.65 18.7 65.77 18.7C65.81 18.7 65.85 18.69 65.89 18.67C65.92 18.66 65.94 18.66 65.97 18.67C66 18.69 66.01 18.71 66.01 18.74C66.01 18.77 65.99 18.8 65.96 18.84C65.66 19.07 65.39 19.19 65.15 19.19C64.48 19.19 64.15 18.8 64.15 18.01V14.7H63.71C63.63 14.7 63.59 14.67 63.59 14.6C63.59 14.53 63.63 14.5 63.7 14.5C64.17 14.5 64.53 14.37 64.78 14.11C65.04 13.85 65.16 13.55 65.16 13.21C65.16 13.09 65.2 13.03 65.28 13.03C65.36 13.03 65.39 13.08 65.39 13.18V14.5H65.93C66.01 14.5 66.05 14.54 66.05 14.61C66.05 14.67 66.01 14.7 65.94 14.7H65.96Z" fill="#231815"/>
<path d="M68.05 18.96C68.05 18.96 68.09 19.02 68.09 19.05C68.09 19.08 68.06 19.1 68.01 19.1H66.6C66.6 19.1 66.53 19.08 66.52 19.05C66.52 19.02 66.52 18.99 66.55 18.96C66.63 18.9 66.67 18.78 66.67 18.61V15.38C66.67 15.31 66.65 15.28 66.61 15.29C66.55 15.29 66.52 15.27 66.51 15.2C66.5 15.14 66.51 15.09 66.58 15.06C67.14 14.79 67.52 14.6 67.74 14.52C67.87 14.47 67.93 14.51 67.93 14.62V18.59C67.93 18.76 67.97 18.89 68.05 18.95V18.96ZM67.74 13.92C67.62 14.05 67.47 14.12 67.3 14.12C67.13 14.12 66.98 14.05 66.86 13.92C66.74 13.79 66.68 13.63 66.68 13.45C66.68 13.27 66.74 13.11 66.86 12.99C66.98 12.86 67.13 12.8 67.3 12.8C67.47 12.8 67.62 12.86 67.74 12.99C67.86 13.12 67.92 13.27 67.92 13.45C67.92 13.63 67.86 13.79 67.74 13.92Z" fill="#231815"/>
<path d="M72.73 15.88C72.99 16.5 73.02 17.11 72.83 17.73C72.64 18.34 72.27 18.78 71.74 19.03C71.48 19.16 71.21 19.22 70.92 19.22C70.49 19.22 70.09 19.09 69.71 18.82C69.33 18.56 69.05 18.19 68.86 17.74C68.6 17.13 68.57 16.52 68.76 15.9C68.95 15.29 69.32 14.85 69.85 14.59C70.11 14.46 70.38 14.4 70.66 14.4C71.08 14.4 71.48 14.53 71.86 14.8C72.24 15.07 72.53 15.43 72.72 15.88H72.73ZM70.92 18.52C71.23 18.86 71.48 18.98 71.68 18.89C71.88 18.8 71.95 18.51 71.92 18.05C71.88 17.58 71.74 17.06 71.5 16.48C71.25 15.9 70.98 15.45 70.67 15.11C70.36 14.77 70.11 14.65 69.91 14.74C69.71 14.83 69.63 15.12 69.67 15.59C69.7 16.06 69.85 16.58 70.09 17.15C70.34 17.73 70.61 18.18 70.92 18.52Z" fill="#231815"/>
<path d="M77.53 18.96C77.53 18.96 77.57 19.02 77.56 19.05C77.56 19.08 77.52 19.1 77.48 19.1H76.08C76.08 19.1 76.01 19.08 76 19.05C76 19.02 76 18.99 76.03 18.96C76.11 18.89 76.15 18.77 76.15 18.6V15.7C76.15 15.2 75.97 14.96 75.61 14.96C75.36 14.96 75.12 15.09 74.89 15.35V18.6C74.89 18.78 74.93 18.9 75.01 18.96C75.04 18.99 75.05 19.02 75.04 19.05C75.04 19.08 75 19.1 74.96 19.1H73.55C73.55 19.1 73.48 19.08 73.47 19.05C73.47 19.02 73.47 18.99 73.51 18.96C73.59 18.89 73.63 18.77 73.63 18.6V15.02C73.63 14.85 73.59 14.73 73.51 14.66C73.48 14.63 73.47 14.6 73.47 14.56C73.47 14.52 73.5 14.5 73.55 14.5H74.57C74.66 14.5 74.73 14.53 74.79 14.6C74.85 14.66 74.88 14.74 74.88 14.84V15.11C75.26 14.65 75.74 14.42 76.31 14.42C76.63 14.42 76.88 14.53 77.09 14.75C77.29 14.97 77.39 15.22 77.39 15.49V18.6C77.39 18.77 77.43 18.9 77.51 18.96H77.53Z" fill="#231815"/>
<path d="M43.31 29.02C43.31 29.02 43.34 29.08 43.33 29.13C43.33 29.18 43.29 29.21 43.24 29.21H41.77C41.67 29.21 41.65 29.16 41.71 29.05C41.74 29 41.54 28.29 41.1 26.94H38.79C38.72 27.29 38.7 27.61 38.73 27.92C38.76 28.22 38.8 28.47 38.86 28.66C38.92 28.85 38.98 29 39.04 29.08C39.06 29.11 39.06 29.14 39.05 29.17C39.05 29.2 39.02 29.22 38.99 29.22H37.86C37.86 29.22 37.81 29.22 37.79 29.19C37.77 29.17 37.76 29.15 37.77 29.12C37.78 29 37.82 28.84 37.88 28.64C37.94 28.44 38 28.27 38.05 28.13C38.1 27.99 38.17 27.81 38.26 27.59C38.35 27.37 38.39 27.25 38.41 27.22C38.88 25.94 39.37 24.62 39.89 23.25C39.83 23.1 39.78 23.02 39.75 23.01C39.71 23 39.69 22.97 39.7 22.92C39.7 22.87 39.72 22.85 39.76 22.85H41.26C41.31 22.85 41.34 22.87 41.35 22.92C41.35 22.97 41.35 23 41.32 23.01C41.29 23.03 41.28 23.06 41.27 23.11C41.27 23.15 41.27 23.21 41.28 23.28C41.3 23.35 41.31 23.41 41.33 23.46C41.35 23.51 41.37 23.58 41.41 23.68C41.44 23.78 41.47 23.84 41.48 23.88C41.53 24.05 41.79 24.85 42.27 26.3C42.75 27.74 43 28.51 43.03 28.59C43.05 28.64 43.07 28.69 43.09 28.74C43.11 28.78 43.12 28.82 43.14 28.84C43.15 28.86 43.17 28.89 43.19 28.91C43.21 28.93 43.22 28.95 43.23 28.96C43.23 28.96 43.25 28.98 43.27 29C43.29 29.02 43.31 29.03 43.31 29.04V29.02ZM38.86 26.71H41.05L40.02 23.53C39.45 25.08 39.11 25.98 39.01 26.25C38.95 26.42 38.91 26.57 38.87 26.71H38.86Z" fill="#231815"/>
<path d="M46.57 26.95C47.07 27.3 47.27 27.73 47.16 28.25C47.1 28.53 46.94 28.76 46.67 28.95C46.4 29.14 46.03 29.24 45.56 29.24C45.06 29.24 44.64 29.14 44.3 28.93C43.96 28.72 43.73 28.48 43.62 28.22C43.54 28.04 43.57 27.87 43.69 27.7C43.81 27.54 43.96 27.42 44.14 27.36C44.17 27.36 44.19 27.36 44.22 27.36C44.25 27.36 44.26 27.37 44.28 27.38C44.29 27.39 44.3 27.4 44.31 27.42C44.31 27.43 44.32 27.45 44.32 27.46C44.32 27.47 44.32 27.49 44.32 27.5C44.26 27.61 44.28 27.79 44.38 28.04C44.48 28.29 44.65 28.54 44.9 28.76C45.15 28.99 45.41 29.1 45.7 29.1C45.91 29.1 46.05 29.03 46.13 28.89C46.21 28.75 46.21 28.59 46.13 28.4C46.06 28.21 45.92 28.04 45.73 27.9C45.64 27.84 45.41 27.67 45.04 27.4C44.67 27.13 44.42 26.95 44.29 26.85C44.09 26.7 43.92 26.49 43.79 26.21C43.66 25.93 43.65 25.64 43.77 25.33C43.88 25.04 44.08 24.81 44.36 24.66C44.64 24.51 44.95 24.43 45.31 24.43C45.97 24.43 46.5 24.61 46.89 24.96C46.96 25.03 47 25.1 47.01 25.18C47.01 25.26 47.01 25.33 46.98 25.4C46.95 25.47 46.9 25.54 46.84 25.61C46.78 25.68 46.72 25.74 46.67 25.78C46.62 25.82 46.57 25.85 46.53 25.88C46.48 25.91 46.44 25.91 46.4 25.89C46.36 25.87 46.34 25.83 46.34 25.78C46.34 25.42 46.2 25.14 45.93 24.93C45.66 24.72 45.38 24.61 45.1 24.61C44.94 24.61 44.82 24.65 44.76 24.72C44.68 24.81 44.63 24.91 44.61 25.04C44.59 25.17 44.61 25.31 44.7 25.46C44.78 25.61 44.91 25.76 45.09 25.88C45.42 26.12 45.93 26.47 46.61 26.94L46.57 26.95Z" fill="#231815"/>
<path d="M50.66 26.95C51.16 27.3 51.36 27.73 51.25 28.25C51.19 28.53 51.03 28.76 50.76 28.95C50.49 29.14 50.12 29.24 49.65 29.24C49.15 29.24 48.73 29.14 48.39 28.93C48.05 28.72 47.82 28.48 47.71 28.22C47.63 28.04 47.66 27.87 47.78 27.7C47.9 27.54 48.05 27.42 48.23 27.36C48.26 27.36 48.28 27.36 48.31 27.36C48.34 27.36 48.35 27.37 48.37 27.38C48.38 27.39 48.39 27.4 48.4 27.42C48.4 27.43 48.41 27.45 48.41 27.46C48.41 27.47 48.41 27.49 48.41 27.5C48.35 27.61 48.37 27.79 48.47 28.04C48.57 28.29 48.74 28.54 48.99 28.76C49.24 28.99 49.5 29.1 49.79 29.1C50 29.1 50.14 29.03 50.22 28.89C50.3 28.75 50.3 28.59 50.22 28.4C50.15 28.21 50.01 28.04 49.82 27.9C49.73 27.84 49.5 27.67 49.13 27.4C48.76 27.13 48.51 26.95 48.38 26.85C48.18 26.7 48.01 26.49 47.88 26.21C47.75 25.93 47.74 25.64 47.86 25.33C47.97 25.04 48.17 24.81 48.45 24.66C48.73 24.51 49.04 24.43 49.4 24.43C50.06 24.43 50.59 24.61 50.98 24.96C51.05 25.03 51.09 25.1 51.1 25.18C51.1 25.26 51.1 25.33 51.07 25.4C51.04 25.47 50.99 25.54 50.93 25.61C50.87 25.68 50.81 25.74 50.76 25.78C50.71 25.82 50.66 25.85 50.62 25.88C50.57 25.91 50.53 25.91 50.49 25.89C50.45 25.87 50.43 25.83 50.43 25.78C50.43 25.42 50.29 25.14 50.02 24.93C49.75 24.72 49.47 24.61 49.19 24.61C49.03 24.61 48.91 24.65 48.85 24.72C48.77 24.81 48.72 24.91 48.7 25.04C48.68 25.17 48.7 25.31 48.79 25.46C48.87 25.61 49 25.76 49.18 25.88C49.51 26.12 50.02 26.47 50.7 26.94L50.66 26.95Z" fill="#231815"/>
<path d="M55.84 25.93C56.1 26.55 56.13 27.16 55.94 27.78C55.75 28.39 55.38 28.83 54.85 29.08C54.59 29.21 54.32 29.27 54.03 29.27C53.6 29.27 53.2 29.14 52.82 28.87C52.44 28.61 52.16 28.24 51.97 27.79C51.71 27.18 51.68 26.57 51.87 25.95C52.06 25.34 52.43 24.9 52.96 24.64C53.22 24.51 53.49 24.45 53.77 24.45C54.19 24.45 54.59 24.58 54.97 24.85C55.35 25.12 55.64 25.48 55.83 25.93H55.84ZM54.04 28.57C54.35 28.91 54.6 29.03 54.8 28.94C55 28.85 55.07 28.56 55.04 28.1C55 27.63 54.86 27.11 54.62 26.53C54.37 25.95 54.1 25.5 53.79 25.16C53.48 24.82 53.23 24.7 53.03 24.79C52.83 24.88 52.75 25.17 52.79 25.64C52.82 26.11 52.97 26.63 53.21 27.2C53.46 27.78 53.73 28.23 54.04 28.57Z" fill="#231815"/>
<path d="M60.44 28.23C60.44 28.23 60.47 28.22 60.5 28.24C60.53 28.26 60.54 28.28 60.52 28.31C60.35 28.58 60.11 28.81 59.79 28.99C59.47 29.18 59.1 29.26 58.65 29.24C58.01 29.21 57.49 28.98 57.11 28.55C56.73 28.12 56.54 27.56 56.54 26.86C56.54 26.16 56.75 25.59 57.16 25.14C57.57 24.69 58.09 24.47 58.72 24.47C59.58 24.47 60.13 24.76 60.37 25.33C60.45 25.52 60.4 25.7 60.22 25.86C60.04 26.02 59.81 26.08 59.53 26.05C59.42 26.04 59.38 25.96 59.41 25.83C59.47 25.57 59.39 25.32 59.18 25.07C58.97 24.83 58.73 24.7 58.47 24.7C58.36 24.7 58.26 24.72 58.18 24.77C57.93 24.89 57.78 25.18 57.73 25.63C57.69 26.09 57.73 26.49 57.87 26.86C58.06 27.44 58.32 27.89 58.64 28.19C58.96 28.5 59.28 28.65 59.61 28.65C59.94 28.65 60.21 28.51 60.45 28.23H60.44Z" fill="#231815"/>
<path d="M62.53 29.01C62.53 29.01 62.57 29.07 62.57 29.1C62.57 29.13 62.54 29.15 62.49 29.15H61.08C61.08 29.15 61.01 29.13 61 29.1C61 29.07 61 29.04 61.03 29.01C61.11 28.95 61.15 28.83 61.15 28.66V25.43C61.15 25.36 61.13 25.33 61.09 25.34C61.03 25.34 61 25.32 60.99 25.25C60.98 25.19 60.99 25.14 61.06 25.11C61.62 24.84 62 24.65 62.22 24.57C62.35 24.52 62.41 24.56 62.41 24.67V28.64C62.41 28.81 62.45 28.94 62.53 29V29.01ZM62.22 23.98C62.1 24.11 61.95 24.18 61.78 24.18C61.61 24.18 61.46 24.11 61.34 23.98C61.22 23.85 61.16 23.69 61.16 23.51C61.16 23.33 61.22 23.17 61.34 23.05C61.46 22.92 61.61 22.86 61.78 22.86C61.95 22.86 62.1 22.92 62.22 23.05C62.34 23.18 62.4 23.33 62.4 23.51C62.4 23.69 62.34 23.85 62.22 23.98Z" fill="#231815"/>
<path d="M67.22 28.92C67.22 28.92 67.28 28.94 67.29 28.98C67.29 29.02 67.29 29.05 67.24 29.07C67.16 29.13 66.94 29.16 66.58 29.16C66.39 29.16 66.23 29.12 66.09 29.05C65.95 28.98 65.86 28.91 65.82 28.84L65.76 28.73L65.69 28.79C65.42 29.1 65.06 29.25 64.59 29.25C64.19 29.25 63.84 29.14 63.55 28.92C63.26 28.7 63.11 28.38 63.1 27.96C63.1 27.84 63.13 27.7 63.19 27.55C63.25 27.4 63.36 27.22 63.52 27.03C63.68 26.83 63.94 26.65 64.31 26.5C64.68 26.34 65.12 26.23 65.64 26.17V25.4C65.64 25.16 65.58 24.97 65.46 24.84C65.34 24.71 65.19 24.64 65.01 24.64C64.69 24.64 64.45 24.83 64.28 25.21C64.11 25.59 64.08 25.87 64.19 26.03C64.21 26.06 64.21 26.1 64.19 26.14C64.17 26.18 64.14 26.2 64.12 26.21C63.96 26.24 63.79 26.2 63.62 26.1C63.45 26 63.36 25.85 63.36 25.64C63.36 25.3 63.55 25.02 63.92 24.8C64.3 24.58 64.73 24.47 65.21 24.47C65.69 24.47 66.1 24.59 66.43 24.82C66.76 25.05 66.93 25.41 66.93 25.88V28.31C66.93 28.4 66.93 28.47 66.93 28.51C66.93 28.55 66.94 28.61 66.95 28.7C66.96 28.79 66.99 28.85 67.04 28.89C67.08 28.93 67.14 28.95 67.21 28.95L67.22 28.92ZM65.12 28.88C65.23 28.88 65.34 28.85 65.43 28.8C65.52 28.75 65.59 28.7 65.63 28.65L65.69 28.58C65.66 28.49 65.64 28.37 65.64 28.24V26.32C65.49 26.35 65.37 26.37 65.28 26.4C65.19 26.42 65.06 26.47 64.89 26.55C64.73 26.62 64.6 26.71 64.51 26.82C64.42 26.92 64.34 27.07 64.28 27.26C64.22 27.45 64.2 27.67 64.22 27.91C64.25 28.19 64.35 28.42 64.51 28.6C64.67 28.79 64.88 28.88 65.12 28.88Z" fill="#231815"/>
<path d="M69.72 24.76H69.17V27.91C69.17 28.12 69.2 28.31 69.26 28.49C69.32 28.67 69.41 28.76 69.53 28.76C69.57 28.76 69.61 28.75 69.65 28.73C69.68 28.72 69.7 28.72 69.73 28.73C69.76 28.75 69.77 28.77 69.77 28.8C69.77 28.83 69.75 28.86 69.72 28.9C69.42 29.13 69.15 29.25 68.91 29.25C68.24 29.25 67.91 28.86 67.91 28.07V24.76H67.47C67.39 24.76 67.35 24.73 67.35 24.66C67.35 24.59 67.39 24.56 67.46 24.56C67.93 24.56 68.29 24.43 68.54 24.17C68.8 23.91 68.92 23.61 68.92 23.27C68.92 23.15 68.96 23.09 69.04 23.09C69.12 23.09 69.15 23.14 69.15 23.24V24.56H69.69C69.77 24.56 69.81 24.6 69.81 24.67C69.81 24.73 69.77 24.76 69.7 24.76H69.72Z" fill="#231815"/>
<path d="M71.81 29.01C71.81 29.01 71.85 29.07 71.85 29.1C71.85 29.13 71.82 29.15 71.77 29.15H70.36C70.36 29.15 70.29 29.13 70.28 29.1C70.28 29.07 70.28 29.04 70.31 29.01C70.39 28.95 70.43 28.83 70.43 28.66V25.43C70.43 25.36 70.41 25.33 70.37 25.34C70.31 25.34 70.28 25.32 70.27 25.25C70.26 25.19 70.27 25.14 70.34 25.11C70.9 24.84 71.28 24.65 71.5 24.57C71.63 24.52 71.69 24.56 71.69 24.67V28.64C71.69 28.81 71.73 28.94 71.81 29V29.01ZM71.5 23.98C71.38 24.11 71.23 24.18 71.06 24.18C70.89 24.18 70.74 24.11 70.62 23.98C70.5 23.85 70.44 23.69 70.44 23.51C70.44 23.33 70.5 23.17 70.62 23.05C70.74 22.92 70.89 22.86 71.06 22.86C71.23 22.86 71.38 22.92 71.5 23.05C71.62 23.18 71.68 23.33 71.68 23.51C71.68 23.69 71.62 23.85 71.5 23.98Z" fill="#231815"/>
<path d="M76.49 25.93C76.75 26.55 76.78 27.16 76.59 27.78C76.4 28.39 76.03 28.83 75.5 29.08C75.24 29.21 74.97 29.27 74.68 29.27C74.25 29.27 73.85 29.14 73.47 28.87C73.09 28.61 72.81 28.24 72.62 27.79C72.36 27.18 72.33 26.57 72.52 25.95C72.71 25.34 73.08 24.9 73.61 24.64C73.87 24.51 74.14 24.45 74.42 24.45C74.84 24.45 75.24 24.58 75.62 24.85C76 25.12 76.29 25.48 76.48 25.93H76.49ZM74.68 28.57C74.99 28.91 75.24 29.03 75.44 28.94C75.64 28.85 75.71 28.56 75.68 28.1C75.64 27.63 75.5 27.11 75.26 26.53C75.01 25.95 74.74 25.5 74.43 25.16C74.12 24.82 73.87 24.7 73.67 24.79C73.47 24.88 73.39 25.17 73.43 25.64C73.46 26.11 73.61 26.63 73.85 27.2C74.1 27.78 74.37 28.23 74.68 28.57Z" fill="#231815"/>
<path d="M81.29 29.01C81.29 29.01 81.33 29.07 81.32 29.1C81.32 29.13 81.28 29.15 81.24 29.15H79.84C79.84 29.15 79.77 29.13 79.76 29.1C79.76 29.07 79.76 29.04 79.79 29.01C79.87 28.94 79.91 28.82 79.91 28.65V25.75C79.91 25.25 79.73 25.01 79.37 25.01C79.12 25.01 78.88 25.14 78.65 25.4V28.65C78.65 28.83 78.69 28.95 78.77 29.01C78.8 29.04 78.81 29.07 78.8 29.1C78.8 29.13 78.76 29.15 78.72 29.15H77.31C77.31 29.15 77.24 29.13 77.23 29.1C77.23 29.07 77.23 29.04 77.27 29.01C77.35 28.94 77.39 28.82 77.39 28.65V25.07C77.39 24.9 77.35 24.78 77.27 24.71C77.24 24.68 77.23 24.65 77.23 24.61C77.23 24.57 77.26 24.55 77.31 24.55H78.33C78.42 24.55 78.49 24.58 78.55 24.65C78.61 24.71 78.64 24.79 78.64 24.89V25.16C79.02 24.7 79.5 24.47 80.07 24.47C80.39 24.47 80.64 24.58 80.85 24.8C81.05 25.02 81.15 25.27 81.15 25.54V28.65C81.15 28.82 81.19 28.95 81.27 29.01H81.29Z" fill="#231815"/>
</g>
<defs>
<clipPath id="clip0_61_88">
<rect width="85" height="32" fill="white"/>
</clipPath>
</defs>
</svg>
