<?xml version="1.0" encoding="UTF-8"?>
<svg id="_레이어_2" data-name="레이어 2" xmlns="http://www.w3.org/2000/svg" viewBox="0 0 139.72 43.89">
  <defs>
    <style>
      .cls-1 {
        fill: #221e1f;
      }

      .cls-1, .cls-2, .cls-3, .cls-4, .cls-5 {
        stroke-width: 0px;
      }

      .cls-2 {
        fill: #d9ac37;
      }

      .cls-3 {
        fill: #3eb65f;
      }

      .cls-4 {
        fill: #006c36;
      }

      .cls-5 {
        fill: #2a3b29;
      }
    </style>
  </defs>
  <g id="IMA">
    <g>
      <g>
        <path class="cls-1" d="M55.6,12.36c0,.23.06.39.17.47.04.03.06.08.05.12-.01.05-.05.07-.11.07h-1.94c-.05,0-.08-.02-.1-.07-.01-.05,0-.09.05-.12.11-.08.17-.23.17-.46v-6.91c0-.23-.06-.4-.17-.48-.04-.03-.06-.07-.05-.12,0-.04.04-.07.1-.07h1.94c.06,0,.1.02.11.07.01.04,0,.08-.05.12-.11.08-.17.23-.17.46v6.92Z"/>
        <path class="cls-1" d="M63.15,13.02h-.42c-2.97-3.98-4.79-6.4-5.46-7.26v6.6c0,.23.06.39.17.47.04.03.06.08.05.12-.01.05-.05.07-.11.07h-.51c-.05,0-.08-.02-.1-.07-.01-.05,0-.09.05-.12.11-.08.17-.23.17-.46v-6.91c0-.23-.06-.4-.17-.48-.04-.03-.06-.07-.05-.12,0-.04.04-.07.1-.07h1.92l4.08,5.33v-4.67c0-.24-.06-.4-.17-.48-.04-.03-.06-.07-.05-.12.01-.04.05-.07.11-.07h.51c.06,0,.1.02.1.07,0,.04,0,.08-.05.12-.1.08-.16.23-.17.46v7.59Z"/>
        <path class="cls-1" d="M63.94,4.8h6.49v2.07h-.14c-.08-.23-.36-.56-.85-1.01-.49-.45-.95-.72-1.39-.81v7.31c0,.23.06.38.17.47.04.03.06.08.05.12-.01.05-.05.07-.11.07h-1.93c-.06,0-.1-.02-.11-.07-.01-.05,0-.09.05-.12.11-.08.17-.23.17-.46v-7.33c-.43.1-.9.37-1.39.82-.49.45-.77.79-.84,1h-.16v-2.07Z"/>
        <path class="cls-1" d="M75.09,5.11h-.77c-.38,0-.71.13-.97.4-.27.27-.4.6-.4.98v2.95c.43-.43.91-.76,1.42-.99.51-.23.92-.36,1.21-.39l.44-.04v1.25c-.22-.04-.48-.07-.8-.07-.93,0-1.69.23-2.28.7v1.86c0,.26.09.48.27.66s.4.27.65.27h1.19c.82,0,1.42-.6,1.81-1.81.02-.06.07-.08.14-.07.08.02.12.06.12.12v2.07h-6.02c-.06,0-.1-.02-.1-.07,0-.05,0-.09.05-.12.11-.08.17-.23.17-.46v-6.91c0-.23-.06-.4-.17-.48-.04-.03-.06-.06-.05-.1,0-.04.04-.06.09-.07h-.04s6.1-.01,6.1-.01v2.07c0,.06-.04.1-.12.11-.08.01-.12-.01-.13-.07-.15-.47-.37-.89-.66-1.25-.3-.37-.68-.55-1.16-.55Z"/>
        <path class="cls-1" d="M85.14,12.81c.06,0,.09.05.09.14,0,.05,0,.08-.05.08h-1.62c-.37,0-.69-.18-.94-.55-.1-.15-.35-.5-.76-1.04-.41-.55-.7-.95-.87-1.2-.24-.36-.47-.57-.69-.65-.04,0-.1-.02-.18-.03-.07-.01-.12-.02-.14-.02v2.82c0,.23.06.39.17.47.04.03.06.08.05.12-.01.05-.05.07-.11.07h-1.94c-.05,0-.08-.02-.1-.07-.01-.05,0-.09.05-.12.11-.08.17-.23.17-.46v-6.91c0-.23-.06-.4-.17-.48-.04-.03-.06-.07-.05-.12,0-.04.04-.07.1-.07h3.01c1.03,0,1.78.22,2.26.65.48.43.72.97.72,1.62,0,.69-.19,1.23-.57,1.62-.38.39-.87.66-1.47.81.3.09.53.25.69.48.04.06.16.23.35.51.19.28.36.53.52.76.16.23.34.47.53.73.2.26.37.47.51.62.14.15.25.23.32.23h.12ZM79.99,5.43v3.9c.21.05.41.08.6.08.54,0,.98-.2,1.33-.59.35-.39.52-.94.52-1.64,0-.56-.14-1.06-.41-1.5-.27-.44-.71-.66-1.32-.66h-.4c-.21,0-.31.14-.31.42Z"/>
        <path class="cls-1" d="M92.08,13.02h-.42c-2.97-3.98-4.79-6.4-5.46-7.26v6.6c0,.23.06.39.17.47.04.03.06.08.05.12-.01.05-.05.07-.11.07h-.51c-.05,0-.08-.02-.1-.07-.01-.05,0-.09.05-.12.11-.08.17-.23.17-.46v-6.91c0-.23-.06-.4-.17-.48-.04-.03-.06-.07-.05-.12,0-.04.04-.07.1-.07h1.92l4.08,5.33v-4.67c0-.24-.06-.4-.17-.48-.04-.03-.06-.07-.05-.12.01-.04.05-.07.11-.07h.51c.06,0,.1.02.1.07,0,.04,0,.08-.05.12-.1.08-.16.23-.17.46v7.59Z"/>
        <path class="cls-1" d="M100.44,12.77s.05.07.03.14c-.01.07-.05.1-.12.1h-2.02c-.14,0-.17-.07-.08-.21.04-.07-.23-.98-.83-2.74h-3.18c-.1.45-.12.87-.08,1.26.04.39.1.71.18.96.08.25.16.43.25.55.03.03.03.07.02.12-.01.04-.04.07-.08.07h-1.55s-.07-.01-.09-.03c-.03-.02-.03-.05-.03-.08.02-.16.07-.36.15-.62.08-.26.16-.48.23-.66.07-.18.17-.41.29-.7.12-.28.18-.44.2-.48.64-1.66,1.32-3.38,2.03-5.15-.09-.19-.15-.3-.2-.31-.05-.02-.08-.06-.07-.12,0-.06.03-.09.08-.09h2.06c.07,0,.11.03.12.09.01.06,0,.1-.05.12-.03.03-.06.07-.07.12,0,.06,0,.13.02.22.02.09.04.17.07.23.02.07.06.16.1.29.05.13.08.21.1.25.07.22.43,1.26,1.09,3.14.66,1.87,1.01,2.86,1.05,2.97.03.07.05.13.08.19.03.06.05.1.07.13.02.03.04.06.07.09.03.03.04.05.05.06,0,0,.03.02.06.05.03.02.05.04.06.05ZM94.31,9.78h3.01l-1.42-4.12c-.79,2.01-1.26,3.18-1.39,3.52-.08.22-.14.42-.2.6Z"/>
        <path class="cls-1" d="M99.57,4.8h6.49v2.07h-.14c-.08-.23-.36-.56-.85-1.01-.49-.45-.95-.72-1.39-.81v7.31c0,.23.06.38.17.47.04.03.06.08.05.12-.01.05-.05.07-.11.07h-1.93c-.06,0-.1-.02-.11-.07-.01-.05,0-.09.05-.12.11-.08.17-.23.17-.46v-7.33c-.43.1-.9.37-1.39.82-.49.45-.77.79-.84,1h-.16v-2.07Z"/>
        <path class="cls-1" d="M108.57,12.36c0,.23.06.39.17.47.04.03.06.08.05.12-.01.05-.05.07-.11.07h-1.94c-.05,0-.08-.02-.1-.07-.01-.05,0-.09.05-.12.11-.08.17-.23.17-.46v-6.91c0-.23-.06-.4-.17-.48-.04-.03-.06-.07-.05-.12,0-.04.04-.07.1-.07h1.94c.06,0,.1.02.11.07.01.04,0,.08-.05.12-.11.08-.17.23-.17.46v6.92Z"/>
        <path class="cls-1" d="M113.66,4.64c1.17,0,2.19.42,3.06,1.25.86.83,1.31,1.84,1.35,3.01.04,1.17-.33,2.18-1.13,3.01-.8.83-1.79,1.24-2.96,1.24s-2.2-.41-3.06-1.24c-.86-.83-1.31-1.83-1.36-3-.04-1.17.34-2.18,1.15-3.01.79-.83,1.78-1.25,2.96-1.25ZM115.39,12.6c.58-.24.93-.81,1.04-1.71.11-.89-.05-1.86-.49-2.88-.37-.87-.84-1.57-1.43-2.11-.59-.54-1.16-.81-1.71-.81-.21,0-.39.03-.53.1-.58.24-.93.81-1.03,1.71-.1.9.06,1.86.5,2.88.37.87.84,1.57,1.42,2.11.58.54,1.15.81,1.71.81.21,0,.39-.03.53-.1Z"/>
        <path class="cls-1" d="M125.22,13.02h-.42c-2.97-3.98-4.79-6.4-5.46-7.26v6.6c0,.23.06.39.17.47.04.03.06.08.05.12-.01.05-.05.07-.11.07h-.51c-.05,0-.08-.02-.1-.07-.01-.05,0-.09.05-.12.11-.08.17-.23.17-.46v-6.91c0-.23-.06-.4-.17-.48-.04-.03-.06-.07-.05-.12,0-.04.04-.07.1-.07h1.92l4.08,5.33v-4.67c0-.24-.06-.4-.17-.48-.04-.03-.06-.07-.05-.12.01-.04.05-.07.11-.07h.51c.06,0,.1.02.1.07,0,.04,0,.08-.05.12-.1.08-.16.23-.17.46v7.59Z"/>
        <path class="cls-1" d="M133.58,12.77s.05.07.03.14c-.01.07-.05.1-.12.1h-2.02c-.14,0-.17-.07-.08-.21.04-.07-.23-.98-.83-2.74h-3.18c-.1.45-.12.87-.08,1.26.04.39.1.71.18.96.08.25.16.43.25.55.03.03.03.07.02.12-.01.04-.04.07-.08.07h-1.55s-.07-.01-.09-.03c-.03-.02-.03-.05-.03-.08.02-.16.07-.36.15-.62.08-.26.16-.48.23-.66.07-.18.17-.41.29-.7.12-.28.18-.44.2-.48.64-1.66,1.32-3.38,2.03-5.15-.09-.19-.15-.3-.2-.31-.05-.02-.08-.06-.07-.12,0-.06.03-.09.08-.09h2.06c.07,0,.11.03.12.09.01.06,0,.1-.05.12-.03.03-.06.07-.07.12,0,.06,0,.13.02.22.02.09.04.17.07.23.02.07.06.16.1.29.05.13.08.21.1.25.07.22.43,1.26,1.09,3.14.66,1.87,1.01,2.86,1.05,2.97.03.07.05.13.08.19.03.06.05.1.07.13.02.03.04.06.07.09.03.03.04.05.05.06,0,0,.03.02.06.05.03.02.05.04.06.05ZM127.45,9.78h3.01l-1.42-4.12c-.79,2.01-1.26,3.18-1.39,3.52-.08.22-.14.42-.2.6Z"/>
        <path class="cls-1" d="M134.14,13.02h.04c-.05-.02-.08-.05-.09-.08,0-.04,0-.08.05-.11.11-.09.17-.24.17-.47v-6.92c0-.22-.06-.37-.17-.46-.04-.03-.06-.07-.05-.12,0-.04.04-.07.1-.07h1.94c.06,0,.1.02.11.07.01.04,0,.08-.05.12-.11.08-.17.24-.17.48v6.4c0,.23.08.43.25.6.16.17.36.25.59.25h.78c.48,0,.86-.18,1.16-.55.3-.37.51-.79.65-1.26.02-.06.07-.08.14-.07.08.02.12.06.12.12v2.07h-5.58Z"/>
        <path class="cls-1" d="M62.14,25.39c0,.23.06.38.18.47.04.03.06.08.05.12-.01.05-.05.07-.11.07h-1.94c-.06,0-.1-.02-.1-.07,0-.05,0-.09.05-.12.1-.07.16-.22.17-.46v-6.65l-2.66,7.12c-.03.08-.08.12-.16.12-.09,0-.14-.03-.17-.1l-3.28-7.1v6.61c0,.23.06.39.17.47.04.03.06.08.05.12-.01.05-.05.07-.11.07h-.51c-.05,0-.08-.02-.1-.07-.01-.05,0-.09.05-.12.11-.08.17-.23.17-.46v-6.91c0-.23-.06-.4-.17-.48-.04-.03-.06-.07-.05-.12,0-.04.04-.07.1-.07h1.68c.17,0,.29.07.34.2l2.52,5.53,2.1-5.55c.04-.11.13-.17.26-.17h1.6c.06,0,.1.02.11.07.01.04,0,.08-.05.12-.11.08-.17.23-.17.46v6.92Z"/>
        <path class="cls-1" d="M67.4,18.14h-.77c-.38,0-.71.13-.97.4-.27.27-.4.6-.4.98v2.95c.43-.43.91-.76,1.42-.99.51-.23.92-.36,1.21-.39l.44-.04v1.25c-.22-.04-.48-.07-.8-.07-.93,0-1.69.23-2.28.7v1.86c0,.26.09.48.27.66s.4.27.65.27h1.19c.82,0,1.42-.6,1.81-1.81.02-.06.07-.08.14-.07.08.02.12.06.12.12v2.07h-6.02c-.06,0-.1-.02-.1-.07,0-.05,0-.09.05-.12.11-.08.17-.23.17-.46v-6.91c0-.23-.06-.4-.17-.48-.04-.03-.06-.06-.05-.1,0-.04.04-.06.09-.07h-.04s6.1-.01,6.1-.01v2.07c0,.06-.04.1-.12.11-.08.01-.12-.01-.13-.07-.15-.47-.37-.89-.66-1.25-.3-.37-.68-.55-1.16-.55Z"/>
        <path class="cls-1" d="M73.17,17.83c1.16,0,2.14.37,2.95,1.11.81.74,1.21,1.74,1.21,2.98,0,.52-.07,1.02-.22,1.5-.15.48-.37.92-.67,1.32-.3.4-.7.72-1.21.96-.5.24-1.08.36-1.73.36h-3.04c-.05,0-.08-.02-.1-.07-.01-.05,0-.09.05-.12.11-.08.17-.23.17-.46v-6.91c0-.23-.06-.4-.17-.48-.04-.03-.06-.07-.05-.12,0-.04.04-.07.1-.07h2.71ZM73.38,25.83c.44,0,.82-.19,1.13-.57.31-.38.53-.85.66-1.4.13-.55.2-1.16.2-1.83,0-1.4-.2-2.41-.61-3.04-.41-.63-.95-.94-1.63-.94h-.52c-.21,0-.31.14-.31.42v6.92c0,.3.07.44.21.44h.87Z"/>
        <path class="cls-1" d="M80.05,25.39c0,.23.06.39.17.47.04.03.06.08.05.12-.01.05-.05.07-.11.07h-1.94c-.05,0-.08-.02-.1-.07-.01-.05,0-.09.05-.12.11-.08.17-.23.17-.46v-6.91c0-.23-.06-.4-.17-.48-.04-.03-.06-.07-.05-.12,0-.04.04-.07.1-.07h1.94c.06,0,.1.02.11.07.01.04,0,.08-.05.12-.11.08-.17.23-.17.46v6.92Z"/>
        <path class="cls-1" d="M80.84,17.83h6.49v2.07h-.14c-.08-.23-.36-.56-.85-1.01-.49-.45-.95-.72-1.39-.81v7.31c0,.23.06.38.17.47.04.03.06.08.05.12-.01.05-.05.07-.11.07h-1.93c-.06,0-.1-.02-.11-.07-.01-.05,0-.09.05-.12.11-.08.17-.23.17-.46v-7.33c-.43.1-.9.37-1.39.82-.49.45-.77.79-.84,1h-.16v-2.07Z"/>
        <path class="cls-1" d="M94.11,25.81s.05.07.03.14c-.01.07-.05.1-.12.1h-2.02c-.14,0-.17-.07-.08-.21.04-.07-.23-.98-.83-2.74h-3.18c-.1.45-.12.87-.08,1.26.04.39.1.71.18.96.08.25.16.43.25.55.03.03.03.07.02.12-.01.04-.04.07-.08.07h-1.55s-.07-.01-.09-.03c-.03-.02-.03-.05-.03-.08.02-.16.07-.36.15-.62.08-.26.16-.48.23-.66.07-.18.17-.41.29-.7.12-.28.18-.44.2-.48.64-1.66,1.32-3.38,2.03-5.15-.09-.19-.15-.3-.2-.31-.05-.02-.08-.06-.07-.12,0-.06.03-.09.08-.09h2.06c.07,0,.11.03.12.09.01.06,0,.1-.05.12-.03.03-.06.07-.07.12,0,.06,0,.13.02.22.02.09.04.17.07.23.02.07.06.16.1.29.05.13.08.21.1.25.07.22.43,1.26,1.09,3.14.66,1.87,1.01,2.86,1.05,2.97.03.07.05.13.08.19.03.06.05.1.07.13.02.03.04.06.07.09.03.03.04.05.05.06,0,0,.03.02.06.05.03.02.05.04.06.05ZM87.98,22.81h3.01l-1.42-4.12c-.79,2.01-1.26,3.18-1.39,3.52-.08.22-.14.42-.2.6Z"/>
        <path class="cls-1" d="M93.23,17.83h6.49v2.07h-.14c-.08-.23-.36-.56-.85-1.01-.49-.45-.95-.72-1.39-.81v7.31c0,.23.06.38.17.47.04.03.06.08.05.12-.01.05-.05.07-.11.07h-1.93c-.06,0-.1-.02-.11-.07-.01-.05,0-.09.05-.12.11-.08.17-.23.17-.46v-7.33c-.43.1-.9.37-1.39.82-.49.45-.77.79-.84,1h-.16v-2.07Z"/>
        <path class="cls-1" d="M102.24,25.39c0,.23.06.39.17.47.04.03.06.08.05.12-.01.05-.05.07-.11.07h-1.94c-.05,0-.08-.02-.1-.07-.01-.05,0-.09.05-.12.11-.08.17-.23.17-.46v-6.91c0-.23-.06-.4-.17-.48-.04-.03-.06-.07-.05-.12,0-.04.04-.07.1-.07h1.94c.06,0,.1.02.11.07.01.04,0,.08-.05.12-.11.08-.17.23-.17.46v6.92Z"/>
        <path class="cls-1" d="M107.32,17.67c1.17,0,2.19.42,3.06,1.25.86.83,1.31,1.84,1.35,3.01.04,1.17-.33,2.18-1.13,3.01-.8.83-1.79,1.24-2.96,1.24s-2.2-.41-3.06-1.24c-.86-.83-1.31-1.83-1.36-3-.04-1.17.34-2.18,1.15-3.01.79-.83,1.78-1.25,2.96-1.25ZM109.06,25.64c.58-.24.93-.81,1.04-1.71.11-.89-.05-1.86-.49-2.88-.37-.87-.84-1.57-1.43-2.11-.59-.54-1.16-.81-1.71-.81-.21,0-.39.03-.53.1-.58.24-.93.81-1.03,1.71-.1.9.06,1.86.5,2.88.37.87.84,1.57,1.42,2.11.58.54,1.15.81,1.71.81.21,0,.39-.03.53-.1Z"/>
        <path class="cls-1" d="M118.89,26.06h-.42c-2.97-3.98-4.79-6.4-5.46-7.26v6.6c0,.23.06.39.17.47.04.03.06.08.05.12-.01.05-.05.07-.11.07h-.51c-.05,0-.08-.02-.1-.07-.01-.05,0-.09.05-.12.11-.08.17-.23.17-.46v-6.91c0-.23-.06-.4-.17-.48-.04-.03-.06-.07-.05-.12,0-.04.04-.07.1-.07h1.92l4.08,5.33v-4.67c0-.24-.06-.4-.17-.48-.04-.03-.06-.07-.05-.12.01-.04.05-.07.11-.07h.51c.06,0,.1.02.1.07,0,.04,0,.08-.05.12-.1.08-.16.23-.17.46v7.59Z"/>
        <path class="cls-1" d="M60.84,38.84s.05.07.03.14c-.01.07-.05.1-.12.1h-2.02c-.14,0-.17-.07-.08-.21.04-.07-.23-.98-.83-2.74h-3.18c-.1.45-.12.87-.08,1.26.04.39.1.71.18.96.08.25.16.43.25.55.03.03.03.07.02.12-.01.04-.04.07-.08.07h-1.55s-.07-.01-.09-.03c-.03-.02-.03-.05-.03-.08.02-.16.07-.36.15-.62.08-.26.16-.48.23-.66.07-.18.17-.41.29-.7.12-.28.18-.44.2-.48.64-1.66,1.32-3.38,2.03-5.15-.09-.19-.15-.3-.2-.31-.05-.02-.08-.06-.07-.12,0-.06.03-.09.08-.09h2.06c.07,0,.11.03.12.09.01.06,0,.1-.05.12-.03.03-.06.07-.07.12,0,.06,0,.13.02.22.02.09.04.17.07.23.02.07.06.16.1.29.05.13.08.21.1.25.07.22.43,1.26,1.09,3.14.66,1.87,1.01,2.86,1.05,2.97.03.07.05.13.08.19.03.06.05.1.07.13.02.03.04.06.07.09.03.03.04.05.05.06,0,0,.03.02.06.05.03.02.05.04.06.05ZM54.71,35.85h3.01l-1.42-4.12c-.79,2.01-1.26,3.18-1.39,3.52-.08.22-.14.42-.2.6Z"/>
        <path class="cls-1" d="M64.76,34.14c1.66.97,2.49,1.92,2.49,2.85,0,.66-.28,1.2-.85,1.6-.57.41-1.33.61-2.28.61-.72,0-1.4-.22-2.03-.65-.63-.43-.95-.91-.95-1.43,0-.79.5-1.19,1.51-1.19.1,0,.16.02.2.06s.05.08.04.13c-.01.05-.04.08-.08.11-.11.07-.18.21-.21.42-.03.21,0,.44.07.69.07.25.18.5.33.74.14.24.35.45.61.61.26.16.55.24.86.24.28,0,.51-.09.69-.27.18-.18.27-.44.27-.78,0-.18-.05-.36-.14-.54-.1-.18-.25-.36-.46-.55-.21-.19-.41-.34-.59-.47-.18-.13-.42-.29-.74-.49-.81-.53-1.33-.92-1.58-1.16-.49-.47-.73-.96-.73-1.47,0-.77.26-1.38.78-1.82.52-.44,1.13-.66,1.83-.66.77,0,1.46.18,2.05.53.6.35.89.74.89,1.17,0,.35-.13.6-.38.74-.26.15-.55.22-.88.22-.17,0-.29-.01-.37-.04-.09-.03-.13-.07-.14-.14,0-.07.03-.12.1-.16.13-.13.15-.34.07-.64-.08-.3-.29-.6-.62-.9-.33-.3-.67-.46-1.02-.46-.13,0-.26.03-.39.08-.16.06-.28.15-.36.28-.08.13-.12.29-.1.48.02.2.09.41.22.63.13.23.36.48.68.77.32.29.72.57,1.2.85Z"/>
        <path class="cls-1" d="M71.54,34.14c1.66.97,2.49,1.92,2.49,2.85,0,.66-.28,1.2-.85,1.6-.57.41-1.33.61-2.28.61-.72,0-1.4-.22-2.03-.65-.63-.43-.95-.91-.95-1.43,0-.79.5-1.19,1.51-1.19.1,0,.16.02.2.06s.05.08.04.13c-.01.05-.04.08-.08.11-.11.07-.18.21-.21.42-.03.21,0,.44.07.69.07.25.18.5.33.74.14.24.35.45.61.61.26.16.55.24.86.24.28,0,.51-.09.69-.27.18-.18.27-.44.27-.78,0-.18-.05-.36-.14-.54-.1-.18-.25-.36-.46-.55-.21-.19-.41-.34-.59-.47-.18-.13-.42-.29-.74-.49-.81-.53-1.33-.92-1.58-1.16-.49-.47-.73-.96-.73-1.47,0-.77.26-1.38.78-1.82.52-.44,1.13-.66,1.83-.66.77,0,1.46.18,2.05.53.6.35.89.74.89,1.17,0,.35-.13.6-.38.74-.26.15-.55.22-.88.22-.17,0-.29-.01-.37-.04-.09-.03-.13-.07-.14-.14,0-.07.03-.12.1-.16.13-.13.15-.34.07-.64-.08-.3-.29-.6-.62-.9-.33-.3-.67-.46-1.02-.46-.13,0-.26.03-.39.08-.16.06-.28.15-.36.28-.08.13-.12.29-.1.48.02.2.09.41.22.63.13.23.36.48.68.77.32.29.72.57,1.2.85Z"/>
        <path class="cls-1" d="M78.7,30.71c1.17,0,2.19.42,3.06,1.25.86.83,1.31,1.84,1.35,3.01.04,1.17-.33,2.18-1.13,3.01-.8.83-1.79,1.24-2.96,1.24s-2.2-.41-3.06-1.24c-.86-.83-1.31-1.83-1.36-3-.04-1.17.34-2.18,1.15-3.01.79-.83,1.78-1.25,2.96-1.25ZM80.43,38.67c.58-.24.93-.81,1.04-1.71.11-.89-.05-1.86-.49-2.88-.37-.87-.84-1.57-1.43-2.11-.59-.54-1.16-.81-1.71-.81-.21,0-.39.03-.53.1-.58.24-.93.81-1.03,1.71-.1.9.06,1.86.5,2.88.37.87.84,1.57,1.42,2.11.58.54,1.15.81,1.71.81.21,0,.39-.03.53-.1Z"/>
        <path class="cls-1" d="M90.99,36.46l.25.13c-.03.08-.07.18-.13.3-.06.12-.2.34-.42.65-.22.31-.47.58-.74.81-.27.23-.63.43-1.09.61s-.94.25-1.45.22c-.7-.04-1.3-.22-1.81-.54-.51-.32-.9-.7-1.15-1.16-.26-.46-.44-.89-.55-1.3-.11-.41-.17-.8-.17-1.17,0-1.24.35-2.27,1.04-3.08.69-.81,1.64-1.21,2.86-1.21,1.49,0,2.56.66,3.21,1.97l-1.53.46c-.13-.65-.38-1.18-.74-1.58-.36-.4-.78-.61-1.26-.61-.13,0-.25.01-.37.04-.37.08-.68.32-.95.71-.27.4-.46.86-.58,1.41-.12.54-.15,1.12-.1,1.73.05.61.18,1.18.39,1.69.21.52.54.95.98,1.28.45.34.98.51,1.58.51.36,0,.7-.06,1.02-.19.32-.13.58-.28.78-.46.2-.18.37-.37.52-.55.15-.19.25-.35.31-.48l.09-.18Z"/>
        <path class="cls-1" d="M93.79,38.43c0,.23.06.39.17.47.04.03.06.08.05.12-.01.05-.05.07-.11.07h-1.94c-.05,0-.08-.02-.1-.07-.01-.05,0-.09.05-.12.11-.08.17-.23.17-.46v-6.91c0-.23-.06-.4-.17-.48-.04-.03-.06-.07-.05-.12,0-.04.04-.07.1-.07h1.94c.06,0,.1.02.11.07.01.04,0,.08-.05.12-.11.08-.17.23-.17.46v6.92Z"/>
        <path class="cls-1" d="M102.14,38.84s.05.07.03.14c-.01.07-.05.1-.12.1h-2.02c-.14,0-.17-.07-.08-.21.04-.07-.23-.98-.83-2.74h-3.18c-.1.45-.12.87-.08,1.26.04.39.1.71.18.96.08.25.16.43.25.55.03.03.03.07.02.12-.01.04-.04.07-.08.07h-1.55s-.07-.01-.09-.03c-.03-.02-.03-.05-.03-.08.02-.16.07-.36.15-.62.08-.26.16-.48.23-.66.07-.18.17-.41.29-.7.12-.28.18-.44.2-.48.64-1.66,1.32-3.38,2.03-5.15-.09-.19-.15-.3-.2-.31-.05-.02-.08-.06-.07-.12,0-.06.03-.09.08-.09h2.06c.07,0,.11.03.12.09.01.06,0,.1-.05.12-.03.03-.06.07-.07.12,0,.06,0,.13.02.22.02.09.04.17.07.23.02.07.06.16.1.29.05.13.08.21.1.25.07.22.43,1.26,1.09,3.14.66,1.87,1.01,2.86,1.05,2.97.03.07.05.13.08.19.03.06.05.1.07.13.02.03.04.06.07.09.03.03.04.05.05.06,0,0,.03.02.06.05.03.02.05.04.06.05ZM96.01,35.85h3.01l-1.42-4.12c-.79,2.01-1.26,3.18-1.39,3.52-.08.22-.14.42-.2.6Z"/>
        <path class="cls-1" d="M101.26,30.87h6.49v2.07h-.14c-.08-.23-.36-.56-.85-1.01-.49-.45-.95-.72-1.39-.81v7.31c0,.23.06.38.17.47.04.03.06.08.05.12-.01.05-.05.07-.11.07h-1.93c-.06,0-.1-.02-.11-.07-.01-.05,0-.09.05-.12.11-.08.17-.23.17-.46v-7.33c-.43.1-.9.37-1.39.82-.49.45-.77.79-.84,1h-.16v-2.07Z"/>
        <path class="cls-1" d="M110.27,38.43c0,.23.06.39.17.47.04.03.06.08.05.12-.01.05-.05.07-.11.07h-1.94c-.05,0-.08-.02-.1-.07-.01-.05,0-.09.05-.12.11-.08.17-.23.17-.46v-6.91c0-.23-.06-.4-.17-.48-.04-.03-.06-.07-.05-.12,0-.04.04-.07.1-.07h1.94c.06,0,.1.02.11.07.01.04,0,.08-.05.12-.11.08-.17.23-.17.46v6.92Z"/>
        <path class="cls-1" d="M115.35,30.71c1.17,0,2.19.42,3.06,1.25.86.83,1.31,1.84,1.35,3.01.04,1.17-.33,2.18-1.13,3.01-.8.83-1.79,1.24-2.96,1.24s-2.2-.41-3.06-1.24c-.86-.83-1.31-1.83-1.36-3-.04-1.17.34-2.18,1.15-3.01.79-.83,1.78-1.25,2.96-1.25ZM117.09,38.67c.58-.24.93-.81,1.04-1.71.11-.89-.05-1.86-.49-2.88-.37-.87-.84-1.57-1.43-2.11-.59-.54-1.16-.81-1.71-.81-.21,0-.39.03-.53.1-.58.24-.93.81-1.03,1.71-.1.9.06,1.86.5,2.88.37.87.84,1.57,1.42,2.11.58.54,1.15.81,1.71.81.21,0,.39-.03.53-.1Z"/>
        <path class="cls-1" d="M126.92,39.09h-.42c-2.97-3.98-4.79-6.4-5.46-7.26v6.6c0,.23.06.39.17.47.04.03.06.08.05.12-.01.05-.05.07-.11.07h-.51c-.05,0-.08-.02-.1-.07-.01-.05,0-.09.05-.12.11-.08.17-.23.17-.46v-6.91c0-.23-.06-.4-.17-.48-.04-.03-.06-.07-.05-.12,0-.04.04-.07.1-.07h1.92l4.08,5.33v-4.67c0-.24-.06-.4-.17-.48-.04-.03-.06-.07-.05-.12.01-.04.05-.07.11-.07h.51c.06,0,.1.02.1.07,0,.04,0,.08-.05.12-.1.08-.16.23-.17.46v7.59Z"/>
      </g>
      <g>
        <circle class="cls-2" cx="39.66" cy="4.02" r="1.9"/>
        <path class="cls-5" d="M34.93,34.22c-8.41,7.17-21.04,6.16-28.21-2.25C.7,24.91.45,14.89,5.48,7.61c-7.11,8.01-7.41,20.23-.27,28.62,7.82,9.17,21.59,10.27,30.76,2.45,8.81-7.51,10.16-20.5,3.33-29.64,4.71,8.19,3.08,18.83-4.38,25.18Z"/>
        <path class="cls-4" d="M12,29.85c-6.13-7.19-5.27-17.98,1.92-24.11C19.95.6,28.51.38,34.73,4.68c-6.85-6.07-17.29-6.33-24.45-.23C2.44,11.14,1.51,22.9,8.19,30.74s17.52,8.68,25.33,2.85c-7,4.02-16.09,2.63-21.52-3.74Z"/>
        <path class="cls-3" d="M23.62,6.79c7.64.32,13.58,6.78,13.26,14.42-.27,6.41-4.86,11.62-10.84,12.94,7.38-.72,13.29-6.78,13.61-14.39.35-8.33-6.12-15.37-14.46-15.72s-14.81,5.62-15.65,13.47c1.47-6.37,7.3-11,14.08-10.72Z"/>
      </g>
    </g>
  </g>
</svg>